<svg xmlns="http://www.w3.org/2000/svg" width="323.897" height="227.664" viewBox="0 0 323.897 227.664"><path d="M.018,199.364a12.093,12.093,0,0,0,12.676,12.893l282.394-9.631a13.225,13.225,0,0,0,12.753-13.809L299.782,11.575A11.9,11.9,0,0,0,285.946.137L21.373,38.446A16.979,16.979,0,0,0,7.461,53.71Z" transform="matrix(0.999, 0.035, -0.035, 0.999, 13.624, 0)" fill="#27509f" opacity="0.4"/><path d="M422.5,400.2a12.093,12.093,0,0,0,10.7,14.576l280.86,30.936a13.223,13.223,0,0,0,14.6-11.839L746.081,257.3A11.9,11.9,0,0,0,734.027,244H466.694a16.979,16.979,0,0,0-15.954,13.114Z" transform="translate(-422.249 -218.126)" fill="#27509f"/></svg>