<svg xmlns="http://www.w3.org/2000/svg" width="25.1" height="25.708" viewBox="0 0 25.1 25.708"><path d="M50.267,160.529a.269.269,0,0,0,.2-.08.276.276,0,0,0,.08-.2.236.236,0,0,0-.039-.132.243.243,0,0,0-.111-.09l-1.688-.676,1.688-.676a.228.228,0,0,0,.151-.222.273.273,0,0,0-.077-.2.266.266,0,0,0-.2-.077.4.4,0,0,0-.151.031l-1.823.743a.423.423,0,0,0-.2.16.429.429,0,0,0-.072.243.424.424,0,0,0,.072.245.463.463,0,0,0,.2.163l1.823.744a.391.391,0,0,0,.145.031Z" transform="translate(-46.231 -150.147)" fill="#cac1ca"/><path d="M99.672,138.7a.311.311,0,0,0,.178-.054.281.281,0,0,0,.111-.163l1.188-3.717a.412.412,0,0,0,.015-.108.258.258,0,0,0-.093-.2.322.322,0,0,0-.217-.08.3.3,0,0,0-.289.217l-1.183,3.717a.4.4,0,0,0-.015.108.258.258,0,0,0,.093.2.317.317,0,0,0,.213.08Z" transform="translate(-94.81 -127.629)" fill="#cac1ca"/><path d="M137.42,160.114a.236.236,0,0,0-.039.132.276.276,0,0,0,.08.2.269.269,0,0,0,.2.08.39.39,0,0,0,.145-.031l1.823-.744a.464.464,0,0,0,.2-.163.423.423,0,0,0,.072-.245.429.429,0,0,0-.072-.243.424.424,0,0,0-.2-.16L137.8,158.2a.4.4,0,0,0-.151-.031.266.266,0,0,0-.2.077.273.273,0,0,0-.077.2.228.228,0,0,0,.151.222l1.69.676-1.688.676a.242.242,0,0,0-.112.09Z" transform="translate(-130.779 -150.147)" fill="#cac1ca"/><path d="M473.563,167.916a.215.215,0,0,0-.215.215v1.833a.215.215,0,0,0,.43,0v-1.833A.215.215,0,0,0,473.563,167.916Z" transform="translate(-448.678 -159.369)" fill="#cac1ca"/><path d="M38.677,10.485H27.417V9.215a.215.215,0,1,0-.43,0v1.269H15.728a1.077,1.077,0,0,0-1.076,1.076V32.148a1.077,1.077,0,0,0,1.076,1.076H26.987v1.269a.215.215,0,1,0,.43,0V33.224H38.677a1.077,1.077,0,0,0,1.076-1.076V20.492a.215.215,0,1,0-.43,0V32.148a.645.645,0,0,1-.645.645H27.417V14.36h11.9v2.448a.215.215,0,1,0,.43,0V11.56a1.077,1.077,0,0,0-1.076-1.076ZM15.082,11.56a.645.645,0,0,1,.645-.645H26.987v3.014h-11.9Zm.645,21.234a.645.645,0,0,1-.645-.645V14.36h11.9v8.248H24.946a.215.215,0,0,0,0,.43h2.041v1.076H18.205a.215.215,0,1,0,0,.43h8.782v2.582H22.794a.215.215,0,0,0,0,.43h4.193v1.076H24.1a.215.215,0,0,0,0,.43h2.883v3.732Zm11.69-18.865V10.915H38.677a.645.645,0,0,1,.645.645v2.369Z" transform="translate(-14.652 -9)" fill="#cac1ca"/><path d="M82.345,262H76.931a.215.215,0,1,0,0,.43h5.414a.215.215,0,0,0,0-.43Z" transform="translate(-73.378 -248.393)" fill="#cac1ca"/><path d="M76.931,346.43h3.263a.215.215,0,0,0,0-.43H76.931a.215.215,0,0,0,0,.43Z" transform="translate(-73.378 -327.875)" fill="#cac1ca"/><path d="M81.736,374h-4.8a.215.215,0,0,0,0,.43h4.8a.215.215,0,0,0,0-.43Z" transform="translate(-73.378 -354.369)" fill="#cac1ca"/><path d="M281.552,138.117a.645.645,0,0,0-.645-.645h-8.165a.645.645,0,0,0-.645.645v3.356a.645.645,0,0,0,.645.645h8.165a.645.645,0,0,0,.645-.645Zm-.43,3.356a.215.215,0,0,1-.215.215h-8.165a.215.215,0,0,1-.215-.215v-3.356a.215.215,0,0,1,.215-.215h8.165a.215.215,0,0,1,.215.215Z" transform="translate(-258.25 -130.562)" fill="#cac1ca"/><path d="M281.552,243.556v-5.339a.645.645,0,0,0-.645-.645h-8.165a.645.645,0,0,0-.645.645v5.339a.645.645,0,0,0,.645.645h8.165a.645.645,0,0,0,.645-.645ZM272.741,238h8.165a.215.215,0,0,1,.215.215v3.3l-1.16-.831a.215.215,0,0,0-.261.008l-1.2.97-3.021-2.231a.215.215,0,0,0-.258,0l-2.7,2.065v-3.28a.215.215,0,0,1,.215-.215Zm8.165,5.769h-8.165a.215.215,0,0,1-.215-.215V242.04l2.83-2.167,3.025,2.234a.215.215,0,0,0,.263-.006l1.2-.972,1.278.916v1.512a.215.215,0,0,1-.215.215Z" transform="translate(-258.25 -225.279)" fill="#cac1ca"/><path d="M371.968,256.268A.968.968,0,1,0,371,255.3.968.968,0,0,0,371.968,256.268Zm0-1.506a.538.538,0,1,1-.538.538A.538.538,0,0,1,371.968,254.762Z" transform="translate(-351.834 -241.137)" fill="#cac1ca"/><path d="M287.355,380.8h-8.3a.215.215,0,1,0,0,.43h8.3a.215.215,0,1,0,0-.43Z" transform="translate(-264.631 -360.803)" fill="#cac1ca"/><path d="M287.355,414.528h-8.3a.215.215,0,1,0,0,.43h8.3a.215.215,0,1,0,0-.43Z" transform="translate(-264.631 -392.717)" fill="#cac1ca"/></svg>