<svg xmlns="http://www.w3.org/2000/svg" width="25.923" height="24.492" viewBox="0 0 25.923 24.492"><g opacity="0.74"><g transform="translate(0 0)"><path d="M17.171,11.945c1.968-.892,2.262-7.683,1.1-9.683-1.517-2.611-8.727-2.087-11-.22a17.547,17.547,0,0,0-.222,3.947h7.146v.626H7.048c0,.009-3.181.02-3.181.02-5.485,0-5.371,11.913,1.866,11.913a23.271,23.271,0,0,1,.731-3.961C7.9,10.505,13.934,13.413,17.171,11.945ZM9.689,5.022a1.492,1.492,0,1,1,1.492-1.492A1.491,1.491,0,0,1,9.689,5.022Z" transform="translate(0 -0.47)" fill="#cac1ca"/><path d="M17.616,4.691a20.664,20.664,0,0,1-.655,3.961c-1.436,4.079-7.469,1.173-10.707,2.641-1.967.892-2.263,7.683-1.1,9.683,1.515,2.613,8.725,2.088,11,.22a17.527,17.527,0,0,0,.222-3.946H9.231v-.626h7.145c0-.009,3.521-.02,3.521-.02C24.952,16.605,25.405,4.691,17.616,4.691ZM13.479,17.958a1.492,1.492,0,1,1-1.491,1.492A1.492,1.492,0,0,1,13.479,17.958Z" transform="translate(2.325 1.724)" fill="#cac1ca"/></g></g></svg>