<svg xmlns="http://www.w3.org/2000/svg" width="1077.333" height="568.045" viewBox="0 0 1077.333 568.045"><g transform="translate(-50.333 -121.731)" opacity="0.05"><g transform="translate(50.333 321.581)"><rect width="376.105" height="262.098" transform="translate(16.439 57.656)" fill="#c4c2bd"/><rect width="376.105" height="48.441" transform="translate(16.439 319.754)" fill="#728ba8"/><path d="M153.547,327.564H100.974v-69.9a26.288,26.288,0,0,1,26.287-26.286h0a26.287,26.287,0,0,1,26.286,26.286Z" transform="translate(28.63 -150.616)" fill="#424c58"/><path d="M121.276,327.564H68.7v-69.9a26.288,26.288,0,0,1,26.286-26.286h0a26.287,26.287,0,0,1,26.287,26.286Z" transform="translate(-21.69 -150.616)" fill="#424c58"/><path d="M133.245,327.564h52.576v-69.9a26.289,26.289,0,0,0-26.289-26.286h0a26.288,26.288,0,0,0-26.287,26.286Z" transform="translate(78.95 -150.616)" fill="#424c58"/><path d="M165.516,327.564h52.576v-69.9a26.288,26.288,0,0,0-26.286-26.286h0a26.289,26.289,0,0,0-26.289,26.286Z" transform="translate(129.27 -150.616)" fill="#424c58"/><path d="M153.547,376.362H100.974v-69.9a26.288,26.288,0,0,1,26.287-26.287h0a26.287,26.287,0,0,1,26.286,26.287Z" transform="translate(28.63 -74.526)" fill="#424c58"/><path d="M121.276,376.362H68.7v-69.9a26.288,26.288,0,0,1,26.286-26.287h0a26.287,26.287,0,0,1,26.287,26.287Z" transform="translate(-21.69 -74.526)" fill="#424c58"/><path d="M133.245,376.362h52.576v-69.9a26.289,26.289,0,0,0-26.289-26.287h0a26.288,26.288,0,0,0-26.287,26.287Z" transform="translate(78.95 -74.526)" fill="#424c58"/><path d="M165.516,376.362h52.576v-69.9a26.288,26.288,0,0,0-26.286-26.287h0a26.289,26.289,0,0,0-26.289,26.287Z" transform="translate(129.27 -74.526)" fill="#424c58"/><path d="M77.311,199.819H424.305v57.656H50.333Z" transform="translate(-50.333 -199.819)" fill="#373f4a"/></g><g transform="translate(735.122 321.581)"><rect width="376.105" height="262.098" transform="translate(376.105 319.754) rotate(180)" fill="#c4c2bd"/><rect width="376.105" height="48.441" transform="translate(376.105 368.195) rotate(180)" fill="#728ba8"/><path d="M400.1,327.564h52.576v-69.9a26.288,26.288,0,0,0-26.287-26.286h0A26.289,26.289,0,0,0,400.1,257.66Z" transform="translate(-189.735 -150.616)" fill="#424c58"/><path d="M432.371,327.564h52.573v-69.9a26.288,26.288,0,0,0-26.286-26.286h0a26.287,26.287,0,0,0-26.286,26.286Z" transform="translate(-139.413 -150.616)" fill="#424c58"/><path d="M420.4,327.564H367.828v-69.9a26.288,26.288,0,0,1,26.286-26.286h0A26.289,26.289,0,0,1,420.4,257.66Z" transform="translate(-240.055 -150.616)" fill="#424c58"/><path d="M388.13,327.564H335.557v-69.9a26.288,26.288,0,0,1,26.286-26.286h0A26.287,26.287,0,0,1,388.13,257.66Z" transform="translate(-290.375 -150.616)" fill="#424c58"/><path d="M400.1,376.362h52.576v-69.9a26.288,26.288,0,0,0-26.287-26.287h0A26.289,26.289,0,0,0,400.1,306.458Z" transform="translate(-189.735 -74.526)" fill="#424c58"/><path d="M432.371,376.362h52.573v-69.9a26.288,26.288,0,0,0-26.286-26.287h0a26.287,26.287,0,0,0-26.286,26.287Z" transform="translate(-139.413 -74.526)" fill="#424c58"/><path d="M420.4,376.362H367.828v-69.9a26.288,26.288,0,0,1,26.286-26.287h0A26.289,26.289,0,0,1,420.4,306.458Z" transform="translate(-240.055 -74.526)" fill="#424c58"/><path d="M388.13,376.362H335.557v-69.9a26.288,26.288,0,0,1,26.286-26.287h0a26.287,26.287,0,0,1,26.287,26.287Z" transform="translate(-290.375 -74.526)" fill="#424c58"/><path d="M672.154,199.819H325.16v57.656H699.132Z" transform="translate(-306.587 -199.819)" fill="#373f4a"/></g><path d="M556.926,284.22v-6.064L372.918,121.731,188.91,278.156v6.064Z" transform="translate(216.082 0)" fill="#424c58"/><path d="M525.846,268.4,361.151,128.394,196.456,268.4V481.392H525.846Z" transform="translate(227.849 10.389)" fill="#dbd8d3"/><rect width="273.101" height="179.601" transform="translate(452.449 510.174)" fill="#dbd8d3"/><path d="M299.549,285.557h0a63.585,63.585,0,0,0-63.586,63.583v85.181H363.134V349.14A63.585,63.585,0,0,0,299.549,285.557Z" transform="translate(289.451 255.453)" fill="#424c58"/><rect width="56.288" height="40.032" transform="translate(424.305 649.744)" fill="#424c58"/><rect width="43.78" height="128.75" transform="translate(430.559 520.994)" fill="#728ba8"/><rect width="56.288" height="40.032" transform="translate(753.694 689.775) rotate(180)" fill="#424c58"/><path d="M365.6,266.322H193.605v18.393H537.588V266.322Z" transform="translate(223.403 225.46)" fill="#728ba8"/><rect width="43.78" height="128.75" transform="translate(747.44 649.744) rotate(180)" fill="#728ba8"/><rect width="6.686" height="116.285" transform="translate(449.106 527.226)" fill="#424c58"/><rect width="6.686" height="116.285" transform="translate(436.192 527.226)" fill="#424c58"/><rect width="6.686" height="116.285" transform="translate(468.707 643.511) rotate(180)" fill="#424c58"/><rect width="6.686" height="116.285" transform="translate(722.207 527.226)" fill="#424c58"/><rect width="6.686" height="116.285" transform="translate(709.292 527.226)" fill="#424c58"/><rect width="6.686" height="116.285" transform="translate(741.808 643.511) rotate(180)" fill="#424c58"/><rect width="311.058" height="82.697" transform="translate(433.471 409.084)" fill="#fbffff"/><path d="M500.788,244.315V306.4H210.344V244.315H500.788m10.306-10.306H200.038v82.7H511.095v-82.7Z" transform="translate(233.433 175.075)" fill="#424c58"/><path d="M288.991,286.261H236.418v-69.9A26.287,26.287,0,0,1,262.7,190.07h0a26.288,26.288,0,0,1,26.286,26.286Z" transform="translate(290.161 106.561)" fill="#424c58"/><path d="M260.752,286.261H208.179v-69.9a26.287,26.287,0,0,1,26.287-26.286h0a26.287,26.287,0,0,1,26.286,26.286Z" transform="translate(246.128 106.561)" fill="#424c58"/><path d="M264.656,286.261h52.573v-69.9a26.287,26.287,0,0,0-26.286-26.286h0a26.288,26.288,0,0,0-26.287,26.286Z" transform="translate(334.192 106.561)" fill="#424c58"/><path d="M0,0H52.574a0,0,0,0,1,0,0V85.919A10.271,10.271,0,0,1,42.3,96.191H10.271A10.271,10.271,0,0,1,0,85.919V0A0,0,0,0,1,0,0Z" transform="translate(723.693 392.822) rotate(180)" fill="#424c58"/><ellipse cx="35.126" cy="36.459" rx="35.126" ry="36.459" transform="translate(553.874 199.665)" fill="#728ba8"/><ellipse cx="29.299" cy="30.411" rx="29.299" ry="30.411" transform="translate(559.701 205.713)" fill="#fbffff"/><rect width="56.288" height="11.901" transform="translate(424.305 510.174)" fill="#424c58"/><rect width="56.288" height="11.901" transform="translate(753.694 522.075) rotate(180)" fill="#424c58"/></g></svg>