<svg xmlns="http://www.w3.org/2000/svg" width="177.336" height="180.364" viewBox="0 0 177.336 180.364"><path d="M46.609,170.826a107.912,107.912,0,0,0,5.356-29.15H0L1.653,133.3H157.841a10.024,10.024,0,0,0,10.01-10.015v-.867H3.8l1.653-8.377h162.4V18.387A10.022,10.022,0,0,0,157.84,8.376H26.324A16.388,16.388,0,0,1,31.615,0H157.841a18.407,18.407,0,0,1,18.386,18.387v104.9a18.41,18.41,0,0,1-18.387,18.391H105.73a107.873,107.873,0,0,0,5.412,29.317h12.731a4.189,4.189,0,0,1,.242,8.37Zm8.747.167h46.983a116.776,116.776,0,0,1-5-29.317H60.354A116.721,116.721,0,0,1,55.356,170.993ZM44.512,105.665a4.189,4.189,0,0,1,0-8.377H134.7a4.189,4.189,0,0,1,0,8.377Zm-21.512,0a4.189,4.189,0,0,1,0-8.377h.675a4.189,4.189,0,0,1,0,8.377ZM66.871,92.551a4.187,4.187,0,0,1-2.686-5.278L85.546,21.652a4.188,4.188,0,1,1,7.965,2.593L72.15,89.865a4.185,4.185,0,0,1-5.279,2.686ZM103.1,82.772a4.188,4.188,0,0,1,.461-5.9l24.69-21.109-24.69-21.11A4.188,4.188,0,1,1,109,28.282l28.414,24.293a4.188,4.188,0,0,1,0,6.367L109,83.234a4.187,4.187,0,0,1-5.9-.462Zm-54.407.463L20.279,58.942a4.189,4.189,0,0,1,0-6.368L48.692,28.282a4.188,4.188,0,1,1,5.443,6.367l-24.69,21.11,24.69,21.109a4.189,4.189,0,0,1-5.443,6.368Z" transform="translate(0.608 0.5)" fill="#fff" stroke="rgba(0,0,0,0)" stroke-miterlimit="10" stroke-width="1" opacity="0.03"/></svg>