<svg xmlns="http://www.w3.org/2000/svg" width="238.892" height="174.926" viewBox="0 0 238.892 174.926"><g transform="matrix(0.966, -0.259, 0.259, 0.966, -89.798, 76.949)"><path d="M.151,3.047C.181,2.528.214,2.011.241,1.5c1.357-.088,2.715-.189,4.068-.332C7.2.851,10.07.456,12.944,0c.147.451.293.9.44,1.352q.549,1.694,1.106,3.384c-3.391.587-6.8,1.02-10.221,1.386Q2.139,6.348,0,6.469q.073-1.71.151-3.422Z" transform="translate(62.997 111.845)" fill="#cac1ca"/><path d="M0,3.835c.355-.074.709-.144,1.063-.217q1.662-.425,3.325-.858c1.1-.282,2.188-.65,3.282-.982C9.506,1.219,11.339.628,13.156,0q.609,2.386,1.239,4.77c-2.65.885-5.312,1.718-7.987,2.533-.941.284-1.912.49-2.865.736-.666.171-1.336.332-2.009.479Q.76,6.176,0,3.835Z" transform="translate(83.062 106.699)" fill="#cac1ca"/><path d="M0,6.054c.031-.014.066-.029.1-.047,1.013-.451,2.075-.853,3.061-1.368Q4.479,3.947,5.8,3.26C7.192,2.427,8.6,1.621,9.948.718Q10.484.36,11.02,0q1.228,2.152,2.458,4.3c-.49.338-.984.677-1.5.984Q10.587,6.115,9.2,6.95c-.765.458-1.553.867-2.346,1.28-.7.368-1.395.774-2.12,1.1q-1.449.649-2.9,1.3c-.192.088-.388.169-.589.248C.828,9.266.409,7.661,0,6.054Z" transform="translate(102.986 98.186)" fill="#cac1ca"/><path d="M.975,6.508C.673,5.293.361,4.081,0,2.885Q2.141,1.455,4.257,0c.115.343.232.689.339,1.036.594,1.876,1.022,3.806,1.456,5.72q.215.943.39,1.894Q4.061,9.39,1.673,10.1c-.2-1.2-.434-2.4-.7-3.594Z" transform="translate(322.121 33.646)" fill="#cac1ca"/><path d="M3.919,9.539C3.1,8.056,2.212,6.623,1.255,5.215.855,4.632.434,4.065,0,3.508Q1.777,1.76,3.548,0c.144.183.284.364.424.549C5.048,2.013,6.093,3.5,7.023,5.059q.641,1.077,1.223,2.187-2.03,1.414-4.083,2.8c-.081-.167-.162-.334-.244-.5Z" transform="translate(315.243 19.673)" fill="#cac1ca"/><path d="M7.815,9.354A55.169,55.169,0,0,0,3.3,6.181C2.212,5.531,1.115,4.894,0,4.289Q1.193,2.145,2.381,0C3.46.589,4.519,1.2,5.574,1.835c1.637.984,3.2,2.072,4.734,3.206.652.479,1.269,1,1.876,1.533l.223.194q-1.753,1.742-3.513,3.478-.528-.458-1.079-.892Z" transform="translate(301.415 7.767)" fill="#cac1ca"/><path d="M19.555,5.5c-1.1-.293-2.248-.528-3.386-.759C13.808,4.307,11.431,3.887,9,3.634c-1.359-.142-2.716-.255-4.084-.364-1.291-.1-2.609-.119-3.914-.156C.67,3.109.332,3.1,0,3.1.144,2.242.294,1.388.47.535.5.357.54.178.578,0c.551.011,1.1.023,1.655.041C3.163.068,4.084.1,5.011.149S6.872.273,7.8.346c1.732.136,3.438.37,5.145.607.8.108,1.594.264,2.391.395.908.151,1.815.323,2.707.506q2.378.493,4.686,1.1-1.2,1.376-2.407,2.754c-.257-.07-.513-.14-.772-.208Z" transform="translate(274.574 0)" fill="#cac1ca"/><path d="M.057,4.872C0,3.756-.009,2.639.009,1.526,1.4,1.26,2.8,1.054,4.2.865,6.8.51,9.414.172,12.037,0c-.21,1.662-.388,3.332-.564,5-.928.072-1.856.154-2.783.26-1.828.21-3.657.427-5.47.722-.968.158-1.95.28-2.91.479-.047.007-.088.018-.133.025C.127,5.95.086,5.411.057,4.872Z" transform="translate(255.874 0.07)" fill="#cac1ca"/><path d="M1.943,9.537C1.49,8.512,1.041,7.477.6,6.445.4,5.966.2,5.49,0,5.011c1.372-.592,2.741-1.187,4.138-1.706A104.5,104.5,0,0,1,14.151,0c.022,1.686.135,3.355.311,5.027-1.5.431-2.966.9-4.447,1.384-2.738.9-5.42,1.991-8.068,3.126Z" transform="translate(234.572 3.232)" fill="#cac1ca"/><path d="M.677,7.594Q.329,6.735,0,5.869C3.864,3.792,7.808,1.867,11.777,0q.213.509.425,1.014.746,1.761,1.526,3.51c-3.359,1.569-6.682,3.212-9.991,4.9-.63.343-1.262.682-1.892,1.025-.4-.948-.786-1.9-1.169-2.853Z" transform="translate(216.244 11.176)" fill="#cac1ca"/><path d="M0,9.591c1.986-1.323,4.005-2.6,6-3.9C8.969,3.745,11.959,1.84,15,0c.126.325.255.648.382.969.488,1.217.993,2.429,1.5,3.636q-.477.285-.953.576C12.9,7.014,9.951,8.989,6.986,10.924c-1.522,1-3.041,2-4.549,3.014C1.623,12.49.81,11.045,0,9.591Z" transform="translate(194.94 20.637)" fill="#cac1ca"/><path d="M.158,6.47,0,6.2Q4,3.03,8.106,0q1.206,2.162,2.42,4.321C8.232,6.009,5.969,7.749,3.734,9.508c-.424.334-.842.67-1.262,1.005Q1.314,8.491.158,6.47Z" transform="translate(180.982 34.382)" fill="#cac1ca"/><path d="M2.16,14.641Q1.077,13.125,0,11.61,2.036,9.774,4.092,7.951C6.772,5.573,9.451,3.188,12.2.892Q12.735.445,13.271,0q1.217,2.192,2.463,4.373-4.9,4.115-9.668,8.395-1.6,1.435-3.19,2.881c-.239-.332-.478-.671-.716-1.009Z" transform="translate(162.088 45.134)" fill="#cac1ca"/><path d="M0,6.226c.232-.21.463-.42.691-.63C2.725,3.747,4.738,1.871,6.754,0L8.745,2.793c.294.415.591.826.892,1.235Q6.1,7.279,2.564,10.522,1.274,8.379,0,6.226Z" transform="translate(150.004 61.635)" fill="#cac1ca"/><path d="M1.939,10.386Q.951,8.644,0,6.883,2.626,4.551,5.246,2.21,6.479,1.106,7.713,0q1.282,2.157,2.574,4.305-3.9,3.506-7.838,6.98c-.169-.3-.341-.6-.51-.9Z" transform="translate(136.869 72.744)" fill="#cac1ca"/><path d="M0,9.594C2.086,8.029,4.12,6.406,6.1,4.7Q8.822,2.364,11.526,0,12.74,2.208,13.98,4.4c-1.89,1.661-3.788,3.314-5.727,4.916-1.549,1.28-3.1,2.537-4.695,3.768-.361.282-.722.553-1.086.824Q1.231,11.756,0,9.594Z" transform="translate(119.866 84.448)" fill="#cac1ca"/></g></svg>