<svg xmlns="http://www.w3.org/2000/svg" width="251.107" height="167.817" viewBox="0 0 251.107 167.817"><g transform="matrix(0.899, 0.438, -0.438, 0.899, 100.311, -323.96)"><path d="M138.423,265.684q.888,2.654,1.738,5.322a38.815,38.815,0,0,1,7.335.706c1.162.28,2.3.6,3.429.982.576-1.707,1.133-3.428,1.652-5.154a41.409,41.409,0,0,0-6.471-1.521,33.929,33.929,0,0,0-5.352-.39q-1.164,0-2.332.055Z" transform="translate(75.827)" fill="#cac1ca"/><path d="M137.771,267.021a42.983,42.983,0,0,0-8.746,3.58q-.905.494-1.791,1.025,1.329,2.328,2.71,4.631l.188-.116a39.561,39.561,0,0,1,8.121-3.676,46.127,46.127,0,0,1,4.719-1.156c-.574-1.725-1.144-3.447-1.725-5.166-1.172.251-2.328.545-3.476.878Z" transform="translate(65.089 0.493)" fill="#cac1ca"/><path d="M127.382,272.026a32.618,32.618,0,0,0-5.16,5.174c-.715.874-1.407,1.738-2.058,2.663-.321.462-.647.921-.972,1.384l-.035.047,2.442,1.728q.979.694,1.956,1.384l.069-.1c.57-.805,1.1-1.674,1.723-2.438.823-1,1.63-2,2.5-2.965a38.25,38.25,0,0,1,3.406-3.045c-.939-1.558-1.868-3.12-2.779-4.7-.365.292-.727.586-1.092.868Z" transform="translate(57.337 5.306)" fill="#cac1ca"/><path d="M118.895,281.26c-.265.557-.472,1.148-.709,1.723-.165.406-.337.805-.478,1.223-.447,1.3-.892,2.591-1.293,3.906a67.143,67.143,0,0,0-1.652,7.143q2.663.426,5.321.866c.167-.986.347-1.971.531-2.955.2-.817.386-1.646.631-2.454.363-1.184.731-2.365,1.137-3.533s.856-2.312,1.329-3.463q.144-.361.306-.717-1.517-1.067-3.028-2.14-.711-.506-1.421-1.009c-.229.47-.451.941-.672,1.411Z" transform="translate(53.12 13.647)" fill="#cac1ca"/><path d="M114.292,293.748c0,1.4.031,2.789.116,4.188.073,1.166.19,2.316.321,3.477.129,1.135.351,2.256.543,3.382s.521,2.224.78,3.324c.045.19.092.38.139.57q2.525-1.055,5.025-2.171c-.2-.811-.39-1.626-.582-2.442a34.4,34.4,0,0,1-.643-4c-.149-1.327-.245-2.644-.333-3.978,0-1.188.02-2.373.063-3.553q-2.684-.447-5.372-.876c-.029.692-.057,1.383-.057,2.075Z" transform="translate(52.668 24.994)" fill="#cac1ca"/><path d="M116.418,305.226c.329.941.678,1.874,1.039,2.806a95.767,95.767,0,0,0,4.952,10.672q2.355-1.3,4.7-2.616c-.686-1.3-1.338-2.616-1.977-3.943-.88-1.83-1.666-3.7-2.461-5.566-.482-1.135-.907-2.293-1.309-3.459q-2.457,1.079-4.938,2.1Z" transform="translate(54.709 35.98)" fill="#cac1ca"/><path d="M205.538,310.44c-1.715,2.855-3.531,5.636-5.5,8.319a83.437,83.437,0,0,1-5.73,6.851c-.276.288-.553.578-.831.866l3.1,4.5q2.428-2.516,4.711-5.164a89.057,89.057,0,0,0,8.652-12.262,2.833,2.833,0,0,0,.455-2.04,2.671,2.671,0,0,0-2.683-2.2,2.484,2.484,0,0,0-2.167,1.123Z" transform="translate(128.658 41.927)" fill="#cac1ca"/><path d="M191.466,326.156c-2.61,2.193-5.256,4.337-7.984,6.373q1.158,2.487,2.346,4.964c1.309-.952,2.591-1.938,3.866-2.932,1.775-1.384,3.5-2.834,5.228-4.278,1.638-1.376,3.281-2.755,4.848-4.207q.37-.341.737-.684-1.537-2.237-3.077-4.474c-1.926,1.815-3.939,3.537-5.965,5.238Z" transform="translate(119.069 53.06)" fill="#cac1ca"/><path d="M180.79,332.461c-2.55,1.19-5.16,2.216-7.8,3.169.172.576.343,1.154.515,1.73q-.153-.482-.31-.962c.463,1.444.923,2.889,1.4,4.329.609-.2,1.213-.417,1.823-.631,1.956-.7,3.908-1.479,5.795-2.357q1.514-.706,3.016-1.448c1.09-.543,2.144-1.18,3.2-1.787q.444-.259.884-.521-1.173-2.422-2.314-4.86c-2.018,1.2-4.064,2.346-6.2,3.339Z" transform="translate(108.997 60.933)" fill="#cac1ca"/><path d="M169.554,334.6c-1.8.037-3.59.022-5.393-.092-1.152-.072-2.3-.186-3.437-.317q.2,2.728.394,5.456a52.412,52.412,0,0,0,5.432.341,44.245,44.245,0,0,0,7.417-.435c1.64-.274,3.271-.572,4.893-.923-.274-.845-.545-1.691-.817-2.536q-.417-1.3-.817-2.6a53.772,53.772,0,0,1-7.672,1.109Z" transform="translate(97.229 65.124)" fill="#cac1ca"/><path d="M147.361,336.313q5.6,1.587,11.264,2.889c2.457.562,4.936,1.021,7.425,1.409q-.2-2.757-.394-5.511-2.869-.476-5.718-1.072c-3.414-.79-6.8-1.674-10.169-2.616q-1.217,2.446-2.408,4.9Z" transform="translate(84.404 63.131)" fill="#cac1ca"/><path d="M136.557,331.624q3.289,1.767,6.739,3.206c2.1.876,4.221,1.67,6.361,2.438l.517.182q1.176-2.434,2.379-4.856a100,100,0,0,1-11.646-4.768q-2.175,1.9-4.35,3.8Z" transform="translate(74.036 59.69)" fill="#cac1ca"/><path d="M121.755,315.789c.359.562.719,1.121,1.074,1.678,1.18,1.826,2.4,3.633,3.682,5.383,1.36,1.854,2.742,3.688,4.172,5.487q.908,1.135,1.879,2.209c-.462.165-.921.325-1.385.486q-3.122.985-6.257,1.928c-1.152.349-2.336.619-3.5.929-.069.02-.135.039-.2.053q.661,2.61,1.34,5.213c2.1-.511,4.176-1.154,6.242-1.781q3.5-1.058,6.943-2.261c.284-.1.566-.2.85-.3q1.676,1.673,3.449,3.235a48.867,48.867,0,0,0,4.217,3.377q2.09-1.837,4.188-3.665c-.078-.049-.157-.1-.233-.151a47.534,47.534,0,0,1-5.393-4.249q-.409-.385-.807-.776c1.231-.553,2.455-1.127,3.667-1.738-1.485-1.233-2.914-2.536-4.311-3.874-.684.337-1.389.627-2.085.937-.429.194-.858.39-1.289.576-1.429-1.542-2.8-3.13-4.119-4.78-2.679-3.363-5.1-6.92-7.445-10.522q-2.331,1.311-4.676,2.608Z" transform="translate(59.315 45.635)" fill="#cac1ca"/><path d="M148.44,273.521l.078.049a27.431,27.431,0,0,1,2.771,2.02c.578.459,1.123.962,1.674,1.456.827.825,1.658,1.638,2.418,2.526a60.307,60.307,0,0,1,4.639,6.012,26.494,26.494,0,0,1,1.777,3.5q2.4-1.232,4.852-2.391a34.163,34.163,0,0,0-4.819-7.809c-.907-1.178-1.9-2.285-2.863-3.408-.317-.368-.688-.7-1.033-1.044-.51-.512-1.007-1.035-1.55-1.509-1.168-1.021-2.316-2.028-3.567-2.949a25.641,25.641,0,0,0-2.675-1.693q-.808,2.634-1.7,5.236Z" transform="translate(85.44 2.549)" fill="#cac1ca"/><path d="M156.609,284.055l0,.014c.239,1.046.353,2.132.529,3.19.157.927.2,1.883.28,2.82.01.557.022,1.119.033,1.678.016.694-.027,1.389-.057,2.085-.061,1.3-.176,2.587-.361,3.87-.221,1.521-.455,3.03-.723,4.543-.076.437-.161.872-.249,1.3.606.023,1.213.057,1.819.1,1.19.084,2.385.176,3.574.27.016-.08.035-.159.051-.239.218-1.021.4-2.064.547-3.1.165-1.111.341-2.222.459-3.343.069-.619.135-1.237.2-1.856.08-.741.073-1.5.106-2.248.047-1.015-.022-2.044-.045-3.059-.016-.678-.092-1.346-.157-2.022-.053-.584-.076-1.188-.172-1.77-.263-1.587-.531-3.165-.87-4.733q-2.5,1.211-4.966,2.493Z" transform="translate(92.756 15.291)" fill="#cac1ca"/><path d="M156.95,298.9c-.562,1.405-1.133,2.793-1.758,4.172-.511,1.139-1.084,2.238-1.66,3.343-.468.786-.927,1.578-1.417,2.346,1.4,1.142,2.82,2.254,4.276,3.312,1.231-1.883,2.254-3.892,3.29-5.883.272-.523.49-1.086.735-1.621.2-.431.406-.86.582-1.3.441-1.1.9-2.189,1.3-3.3.345-.97.68-1.936,1-2.914q-1.129-.085-2.26-.167c-1.1-.078-2.191-.125-3.288-.147q-.37,1.091-.8,2.162Z" transform="translate(88.967 29.859)" fill="#cac1ca"/><path d="M149.819,310.452c-.723.764-1.442,1.532-2.165,2.3-.559.592-1.164,1.154-1.766,1.707,1.18,1.356,2.361,2.706,3.576,4.031,1.258-1.2,2.452-2.467,3.651-3.733,1.619-1.717,3.141-3.522,4.627-5.354-1.442-1.052-2.849-2.154-4.235-3.282-1.193,1.474-2.45,2.9-3.688,4.335Z" transform="translate(82.991 38.856)" fill="#cac1ca"/><path d="M149.773,313.343c-1.752,1.409-3.541,2.789-5.381,4.08-1.037.727-2.06,1.5-3.124,2.185-.915.59-1.824,1.174-2.74,1.762-1.1.655-2.2,1.3-3.308,1.938,1.256,1.092,2.522,2.165,3.863,3.163a4.058,4.058,0,0,1,.543.49q.626-.385,1.252-.756c1.19-.707,2.338-1.5,3.5-2.252.984-.629,1.93-1.325,2.887-1.993,1.744-1.227,3.475-2.489,5.136-3.825q.7-.561,1.4-1.125c-.325-.357-.647-.715-.97-1.076q-1.314-1.467-2.61-2.949l-.445.359Zm-11.46,8.166c-.1.065-.206.133-.314.2.108-.065.212-.133.314-.2Z" transform="translate(72.753 45.446)" fill="#cac1ca"/><path d="M110.275,329.426c.682.1,1.362.188,2.04.28a65.9,65.9,0,0,0,7.249.431c.413.016.831-.027,1.244-.045.8-.031,1.6-.067,2.4-.1q1.064-.044,2.122-.145-.682-2.622-1.35-5.252l-.539.047h.057c-1.515.069-3.024.149-4.543.1l-2.795-.08c-1.037-.031-2.087-.2-3.116-.3-.325-.031-.651-.065-.976-.108q-.9,2.587-1.791,5.162Z" transform="translate(48.813 56.271)" fill="#cac1ca"/><path d="M100.567,324.892c-.19.653-.378,1.305-.57,1.956.48.18.962.359,1.44.535.992.37,1.993.7,2.992,1.05.547.19,1.121.333,1.677.5.574.173,1.148.372,1.728.513q2.252.541,4.5,1.041.882-2.531,1.76-5.068l-.988-.2c-.9-.214-1.791-.431-2.691-.645-.958-.233-1.9-.523-2.84-.8-1.834-.545-3.629-1.191-5.42-1.856l-.655-.241q-.47,1.611-.939,3.222Z" transform="translate(38.95 53.782)" fill="#cac1ca"/><path d="M89.5,322.01c-.069.167-.133.335-.2.5.976.439,1.96.864,2.951,1.268q5.321,2.184,10.686,4.26.279-.955.555-1.911.476-1.643.956-3.284-1.461-.573-2.916-1.154c-3.418-1.36-6.839-2.7-10.212-4.168q-.92,2.24-1.819,4.486Z" transform="translate(28.682 49.803)" fill="#cac1ca"/><path d="M79.547,317.517c3.155,1.774,6.285,3.569,9.5,5.23.841.435,1.685.858,2.532,1.28l.045-.11q.976-2.437,1.975-4.868c-1.233-.613-2.459-1.24-3.684-1.871-2.847-1.572-5.663-3.2-8.515-4.774q-.926,2.557-1.85,5.113Z" transform="translate(19.324 44.889)" fill="#cac1ca"/><path d="M72.545,309.824c-.551,1.041-1.072,2.095-1.585,3.153q2.3,1.093,4.578,2.238,2.634,1.317,5.258,2.64.914-2.54,1.834-5.074-1.417-.714-2.836-1.425c-2.073-1.035-4.133-2.1-6.226-3.09-.055-.024-.1-.047-.159-.072-.286.547-.576,1.088-.864,1.63Z" transform="translate(11.083 40.849)" fill="#cac1ca"/><path d="M59.411,308.258c1.531.666,3.059,1.331,4.6,1.969,3.621,1.509,7.3,2.9,10.921,4.405q1.2-2.422,2.461-4.815c-1.9-.821-3.839-1.542-5.761-2.3-3.514-1.389-6.99-2.865-10.453-4.366q-.867,2.56-1.766,5.111Z" transform="translate(0 36.005)" fill="#cac1ca"/></g></svg>