<svg xmlns="http://www.w3.org/2000/svg" width="288.996" height="130.051" viewBox="0 0 288.996 130.051"><g transform="matrix(-0.656, 0.755, -0.755, -0.656, 309.847, -16.971)"><path d="M17.052,3.623q-.058-.925-.109-1.845c-1.614-.1-3.228-.224-4.838-.395C8.666,1.012,5.254.542,1.836,0q-.263.8-.521,1.608Q.662,3.622,0,5.634c4.031.7,8.087,1.213,12.152,1.648q2.533.266,5.079.412-.09-2.037-.179-4.071Z" transform="translate(293.196 133.006)" fill="#cac1ca"/><path d="M17.118,4.56c-.421-.088-.843-.171-1.264-.258Q13.879,3.8,11.9,3.284c-1.315-.337-2.6-.775-3.9-1.17Q4.722,1.118,1.473,0,.749,2.837,0,5.673C3.151,6.725,6.317,7.718,9.5,8.687c1.117.335,2.272.581,3.405.873q1.188.307,2.389.57.922-2.786,1.823-5.57Z" transform="translate(269.446 126.887)" fill="#cac1ca"/><path d="M16.027,7.2c-.036-.017-.079-.034-.115-.053-1.206-.538-2.468-1.016-3.64-1.629Q10.7,4.692,9.127,3.875C7.477,2.884,5.8,1.928,4.2.854Q3.56.425,2.923,0,1.466,2.556,0,5.107c.585.4,1.172.807,1.781,1.17L5.09,8.263C6,8.807,6.939,9.3,7.88,9.787c.835.436,1.659.92,2.524,1.3,1.146.517,2.3,1.029,3.444,1.544.228.1.463.2.7.3q.746-2.866,1.48-5.732Z" transform="translate(246.843 116.765)" fill="#cac1ca"/><path d="M3.781,10.3c1.313-.549,2.673-.986,4.029-1.422a73.485,73.485,0,0,1,8.519-2.073c1.618-.267,3.232-.48,4.857-.683,1.535-.188,3.1-.22,4.654-.292.4-.009.8-.019,1.2-.032-.171-1.6-.35-3.2-.557-4.8-.043-.333-.083-.67-.13-1-.653.021-1.309.045-1.968.079-1.1.049-2.2.117-3.3.2s-2.214.233-3.322.369c-2.06.258-4.086.7-6.117,1.136-.956.2-1.9.5-2.844.741-1.08.284-2.161.6-3.22.95Q2.743,4.395,0,5.534l2.863,5.158c.305-.132.611-.26.918-.391Z" transform="translate(31.782 0)" fill="#cac1ca"/><path d="M14.245,5.794c.07-1.328.079-2.656.058-3.98-1.65-.316-3.322-.562-4.987-.786C6.226.606,3.117.2,0,0,.25,1.979.459,3.963.668,5.948c1.1.083,2.208.184,3.309.31,2.173.25,4.351.508,6.505.856,1.151.188,2.319.333,3.461.57.056.009.1.021.16.03.058-.636.107-1.279.141-1.919Z" transform="translate(66.743 0.083)" fill="#cac1ca"/><path d="M14.887,11.341q.807-1.829,1.593-3.676c.243-.57.48-1.136.717-1.706-1.629-.7-3.26-1.411-4.919-2.028C8.356,2.474,4.422,1.059.369,0,.344,2,.209,3.992,0,5.98c1.778.512,3.529,1.068,5.288,1.644,3.256,1.07,6.448,2.368,9.595,3.717Z" transform="translate(89.19 3.843)" fill="#cac1ca"/><path d="M15.521,9.031q.413-1.025.8-2.054C11.734,4.507,7.041,2.218,2.321,0q-.25.6-.506,1.2C1.225,2.6.617,3.992,0,5.378,3.995,7.244,7.949,9.2,11.881,11.2l2.252,1.221c.47-1.129.933-2.257,1.388-3.393Z" transform="translate(111.857 13.293)" fill="#cac1ca"/><path d="M20.078,11.405c-2.359-1.573-4.761-3.1-7.131-4.646C9.413,4.451,5.858,2.186,2.244,0Q2.02.576,1.789,1.151.918,3.322,0,5.474l1.134.685c3.6,2.182,7.11,4.528,10.639,6.832,1.808,1.185,3.615,2.372,5.408,3.583q1.451-2.584,2.9-5.169Z" transform="translate(133.44 24.544)" fill="#cac1ca"/><path d="M12.332,7.695l.186-.325Q7.762,3.6,2.878,0,1.443,2.572,0,5.141c2.731,2,5.419,4.074,8.077,6.168.506.395,1,.794,1.5,1.193q1.374-2.4,2.752-4.808Z" transform="translate(157.6 40.887)" fill="#cac1ca"/><path d="M16.143,17.413c.858-1.2,1.714-2.4,2.568-3.606q-2.421-2.184-4.866-4.349C10.66,6.627,7.473,3.792,4.2,1.061,3.781.707,3.354.352,2.929,0Q1.482,2.61,0,5.2q5.832,4.893,11.5,9.983,1.909,1.707,3.8,3.427c.282-.395.566-.8.85-1.2Z" transform="translate(173.875 53.674)" fill="#cac1ca"/><path d="M11.461,7.406c-.275-.25-.551-.5-.822-.749C8.22,4.456,5.824,2.225,3.429,0L1.059,3.322c-.35.493-.7.984-1.059,1.469q4.2,3.865,8.412,7.722,1.531-2.549,3.049-5.107Z" transform="translate(195.498 73.297)" fill="#cac1ca"/><path d="M9.928,12.351q1.175-2.075,2.306-4.168Q9.111,5.41,6,2.626L3.062,0Q1.54,2.562,0,5.118q4.644,4.17,9.324,8.3c.2-.359.4-.713.6-1.07Z" transform="translate(210.343 86.51)" fill="#cac1ca"/><path d="M16.627,11.409c-2.483-1.862-4.9-3.792-7.253-5.816Q6.134,2.814,2.921,0,1.473,2.629,0,5.235C2.248,7.21,4.507,9.176,6.811,11.081,8.653,12.6,10.5,14.1,12.394,15.564c.429.333.858.658,1.294.978q1.476-2.559,2.94-5.133Z" transform="translate(226.172 100.426)" fill="#cac1ca"/></g></svg>