<svg xmlns="http://www.w3.org/2000/svg" width="39.322" height="35.605" viewBox="0 0 39.322 35.605"><g transform="translate(0 -24.199)"><path d="M353.1,284.4a3.462,3.462,0,1,0-3.462-3.462A3.466,3.466,0,0,0,353.1,284.4Zm0-5.771a2.31,2.31,0,1,1-2.31,2.31A2.312,2.312,0,0,1,353.1,278.624Z" transform="translate(-322.789 -233.822)" fill="#fdcc5c"/><path d="M194.8,125.292a.576.576,0,1,0,0-1.152h-9.85a.576.576,0,1,0,0,1.152Z" transform="translate(-170.211 -92.266)" fill="#fdcc5c"/><path d="M222.512,280.284a.576.576,0,0,0-.576-.576h-4.925a.576.576,0,1,0,0,1.152h4.925A.576.576,0,0,0,222.512,280.284Z" transform="translate(-199.813 -235.886)" fill="#fdcc5c"/><path d="M120.241,155.77a.576.576,0,0,0,.576.576h19.7a.576.576,0,1,0,0-1.152h-19.7A.576.576,0,0,0,120.241,155.77Z" transform="translate(-111.006 -120.935)" fill="#fdcc5c"/><path d="M120.817,187.4h19.7a.576.576,0,1,0,0-1.152h-19.7a.576.576,0,1,0,0,1.152Z" transform="translate(-111.006 -149.603)" fill="#fdcc5c"/><path d="M120.817,218.452h19.7a.576.576,0,1,0,0-1.152h-19.7a.576.576,0,1,0,0,1.152Z" transform="translate(-111.006 -178.271)" fill="#fdcc5c"/><path d="M0,27.2V48.081a3,3,0,0,0,3,3H26.148c.039.017.079.033.119.048v7.582a1.093,1.093,0,0,0,1.727.892l1.2-.855h0l1.116-.792L32.635,59.6a1.094,1.094,0,0,0,1.727-.892V51.127c.04-.015.079-.031.119-.048h1.843a3,3,0,0,0,3-3v-9.1a.576.576,0,1,0-1.152,0v9.1a1.848,1.848,0,0,1-1.846,1.846h-.958c.058-.439-.03-.924.047-1.159.111-.343.835-.873.835-1.656a2.031,2.031,0,0,0-.552-1.227c-.248-.32-.28-.388-.3-.507a2.292,2.292,0,0,1,.476-.05,1.118,1.118,0,0,0,1.147-1.12V31.07a1.118,1.118,0,0,0-1.126-1.12,2.3,2.3,0,0,1-2.32-2.32,1.118,1.118,0,0,0-1.12-1.126H6.871a1.117,1.117,0,0,0-1.12,1.147,2.3,2.3,0,0,1-2.32,2.3A1.118,1.118,0,0,0,2.3,31.07V44.208a1.118,1.118,0,0,0,1.148,1.12,2.3,2.3,0,0,1,2.3,2.32,1.118,1.118,0,0,0,1.12,1.127H18.317a.576.576,0,1,0,0-1.152H6.9a3.455,3.455,0,0,0-3.447-3.447V31.1A3.449,3.449,0,0,0,6.9,27.655H32.419A3.451,3.451,0,0,0,35.866,31.1V44.176a3.459,3.459,0,0,0-.513.039c-.146-.833-.768-1.064-1.388-1.247a1.031,1.031,0,0,1-.831-.6,2.018,2.018,0,0,0-.986-.9,1.993,1.993,0,0,0-1.294.142,1.1,1.1,0,0,1-1.078,0,2.416,2.416,0,0,0-1.028-.2H9.811a.576.576,0,0,0,0,1.152H27.354a1.024,1.024,0,0,1-.19.211c-.35.255-1.473.223-1.816,1.163a9.167,9.167,0,0,0-.131,1.516c-.133.41-1.158,1.1-.733,2.167H21a.576.576,0,0,0,0,1.152h4.213c.073.239-.013.714.045,1.152H3a1.848,1.848,0,0,1-1.846-1.846V27.2A1.848,1.848,0,0,1,3,25.351H36.324A1.848,1.848,0,0,1,38.17,27.2v9.1a.576.576,0,0,0,1.152,0V27.2a3,3,0,0,0-3-3H3a3,3,0,0,0-3,3ZM28.289,57.979l-.87.617V51.748a2.607,2.607,0,0,0,.87.926Zm2.9-.818-.24-.171q-.035-.025-.073-.047a1.1,1.1,0,0,0-1.194.047l-.24.171V52.724c1.156-.337.546-.349,1.747,0ZM33.21,58.6l-.87-.617V52.674a2.609,2.609,0,0,0,.87-.926ZM25.845,46.591a2.066,2.066,0,0,0,.553-1.71c-.016-.6,0-.607.3-.718.856-.307,1.1-.2,1.744-1.15.124-.183.279-.409.386-.448.126,0,.124-.023.557.131a2.149,2.149,0,0,0,1.849,0,1.442,1.442,0,0,1,.553-.132c.108.035.264.265.39.45a2.067,2.067,0,0,0,1.458,1.059c.621.182.608.166.591.808a2.065,2.065,0,0,0,.553,1.71c.405.523.405.519,0,1.042a2.148,2.148,0,0,0-.55,1.833c.01.63-.032.474-.921.787a1.989,1.989,0,0,0-1.13.956c-.376.553-.355.526-.944.317a2.425,2.425,0,0,0-2.13.094c-.351.1-.312.073-.788-.593-.745-1.043-1.531-.761-1.864-1.095-.081-.085-.064-.435-.059-.591a2,2,0,0,0-.381-1.481c-.542-.757-.653-.65-.172-1.27Z" transform="translate(0 0)" fill="#fdcc5c"/></g></svg>