<svg xmlns="http://www.w3.org/2000/svg" width="14.624" height="21.164" viewBox="0 0 14.624 21.164"><g transform="translate(51.092 -27.156)"><path d="M-38.18,32.971c.447,1.968-2.484,3.22-2.484,3.22,2.484-4.383-2.436-9.035-2.436-9.035,0,8.23-7.992,8.946-7.992,15.56,0,3.115,2.05,4.844,4.609,5.485-.009-.005-3.135-1.95-2.331-4.731,0,0,.738,2.618,1.577,2.366s-.82-1.527-.477-2.7a3.04,3.04,0,0,1,1.584-1.778,1.211,1.211,0,0,0,.268-1.677s2.08,1.845.738,3.053-1.241,1.778-.57,2.147,2.952-.033,3.69-2.784c0,0,1.107,3.153,0,4.193,0,0,.537.537,1.61-.335a3.208,3.208,0,0,1-1.668,2.368,8.727,8.727,0,0,0,3.95-1.663C-34.375,43.616-38.18,32.971-38.18,32.971Z" transform="translate(0 0)" fill="#fdcc5c"/><path d="M14.356,127.836a9.445,9.445,0,0,1-5.583,5.977,8.726,8.726,0,0,0,3.95-1.663A5.675,5.675,0,0,0,14.356,127.836Z" transform="translate(-50.834 -85.493)" fill="#fdcc5c"/><path d="M-50.765,115.871a7.115,7.115,0,0,0-.327,2.178c0,3.061,1.979,4.783,4.476,5.449C-49.508,122.192-50.758,115.9-50.765,115.871Z" transform="translate(0 -75.333)" fill="#fdcc5c"/></g></svg>