<svg xmlns="http://www.w3.org/2000/svg" width="237.114" height="195.166" viewBox="0 0 237.114 195.166"><g transform="matrix(-0.545, 0.839, -0.839, -0.545, 492.289, -74.023)"><path d="M343.2,94.614a23.381,23.381,0,0,0-5.32,2.279,15.112,15.112,0,0,0-3.1,2.34,16.182,16.182,0,0,0-2.538,3.551,41.066,41.066,0,0,0-2.351,4.808c-.632,1.62-1.2,3.264-1.7,4.93-1.037,3.485-1.873,7.03-2.625,10.588-.715,3.387-1.351,6.79-1.787,10.224-.221,1.723-.44,3.448-.633,5.176-.192,1.749-.335,3.5-.46,5.255-.246,3.455-.38,6.916-.6,10.372-.111,1.831-.207,3.658-.308,5.489-.1,1.737-.275,3.471-.457,5.2-.358,3.423-.783,6.84-1.105,10.267-.172,1.8-.332,3.605-.518,5.4-.177,1.728-.374,3.451-.524,5.178q-.214,2.457-.427,4.913c-.145,1.7-.315,3.392-.421,5.09-.1,1.549-.134,3.1-.157,4.647-.026,1.627-.049,3.258.023,4.885a14.98,14.98,0,0,0,.247,2.146,13.973,13.973,0,0,0,.65,2.446,7.581,7.581,0,0,0,1.188,2.132,6.226,6.226,0,0,0,1.447,1.28,6.881,6.881,0,0,0,1,.541c.046-.309.091-.617.139-.926q.2-1.273.412-2.544c-.068-.05-.137-.1-.2-.158a5.864,5.864,0,0,1-.508-.662,9.839,9.839,0,0,1-.58-1.379,13.758,13.758,0,0,1-.4-1.929c-.088-.7-.132-1.391-.152-2.092-.019-1.7.011-3.389.042-5.086s.157-3.4.3-5.1.288-3.382.44-5.074c.152-1.674.272-3.352.45-5.025.379-3.548.7-7.1,1.061-10.647.349-3.421.8-6.832,1.108-10.254.156-1.706.248-3.416.342-5.127.1-1.842.219-3.683.332-5.526.106-1.721.164-3.446.26-5.169s.222-3.431.363-5.142c.288-3.5.733-6.995,1.239-10.471.494-3.415,1.2-6.809,1.958-10.176.308-1.372.634-2.742.969-4.11.584-2.218,1.228-4.419,2-6.582.4-1.129.834-2.247,1.344-3.328.488-1.036,1.012-2.045,1.56-3.049.179-.291.359-.581.536-.874a11.636,11.636,0,0,1,1.316-1.735,14.927,14.927,0,0,1,2.557-1.928,23.3,23.3,0,0,1,2.152-1.05c.914-.367,1.826-.7,2.765-.986a1.575,1.575,0,0,0,.867-.891,1.643,1.643,0,0,0-.914-2.141,1.484,1.484,0,0,0-.563-.113,2.447,2.447,0,0,0-.717.131Z" transform="translate(7.839 -0.003)" fill="#cac1ca"/><path d="M342.167,94.606a1.583,1.583,0,0,0-1.062.639,1.643,1.643,0,0,0,.327,2.3,1.764,1.764,0,0,0,1.243.311c.143-.006.288-.013.43-.018a8.432,8.432,0,0,1,1.392.119,6.462,6.462,0,0,1,.747.318c.809.5.839.8,1.534,1.447a13.111,13.111,0,0,1,1.656,2.09,10.463,10.463,0,0,1,.825,1.917,18.787,18.787,0,0,1,.475,3.768c.007,1.627-.108,3.247-.255,4.867-.159,1.758-.362,3.509-.563,5.262-.395,3.424-.994,6.814-1.461,10.23-.225,1.644-.417,3.291-.621,4.937-.212,1.723-.517,3.439-.843,5.142-.327,1.735-.7,3.46-1.063,5.186-.357,1.681-.686,3.366-1.023,5.051s-.616,3.362-.932,5.043c-.321,1.7-.71,3.389-1.036,5.091s-.607,3.434-.838,5.162c-.224,1.681-.472,3.36-.818,5.021-.725,3.511-1.472,7.018-2.207,10.529-.34,1.629-.628,3.272-.944,4.906-.343,1.77-.7,3.537-1.08,5.3-.361,1.657-.73,3.313-1.14,4.96-.541,2.037-1.086,4.073-1.675,6.1a29.863,29.863,0,0,1-2.15,5.789,14.864,14.864,0,0,1-1.538,2.181,13.424,13.424,0,0,1-1.932,1.344,9.545,9.545,0,0,1-.993.49c-.2,1.128-.408,2.255-.574,3.391l-.026.183q.126-.022.252-.047a8.992,8.992,0,0,0,2.641-.988c.452-.253.883-.543,1.319-.822a11,11,0,0,0,1.128-.755,9.459,9.459,0,0,0,1.611-1.846,19.754,19.754,0,0,0,1.433-2.4,22.252,22.252,0,0,0,.923-2.208c.578-1.543,1-3.159,1.435-4.746.468-1.691.946-3.381,1.372-5.082.417-1.662.792-3.336,1.157-5.012.385-1.76.74-3.527,1.084-5.3.321-1.662.612-3.334.958-4.991.731-3.495,1.476-6.988,2.2-10.481.341-1.651.595-3.313.82-4.979.231-1.73.5-3.453.831-5.166.333-1.74.712-3.472,1.056-5.211.331-1.676.607-3.364.934-5.045.656-3.375,1.422-6.732,2.063-10.112.332-1.749.628-3.5.867-5.267.219-1.617.388-3.242.611-4.857.465-3.4,1.065-6.778,1.458-10.188q.309-2.683.577-5.37a45.718,45.718,0,0,0,.258-5.14c-.012-.959-.088-1.908-.183-2.862a12.16,12.16,0,0,0-.607-2.578,11.958,11.958,0,0,0-2.882-4.554,9.854,9.854,0,0,0-2.7-2.345,6.78,6.78,0,0,0-2.091-.68,6.337,6.337,0,0,0-1.036-.074c-.454,0-.909.032-1.347.053Z" transform="translate(9.405 0.016)" fill="#cac1ca"/><path d="M338.718,101.133a7.8,7.8,0,0,0-1.554.332,5.1,5.1,0,0,0-2.553,1.858,18.486,18.486,0,0,0-1.415,2.3c-.412.781-.8,1.568-1.162,2.373a1.459,1.459,0,0,0-.124.707,9.178,9.178,0,0,0-.29,1.146,5.282,5.282,0,0,0-.12.918,7.777,7.777,0,0,0,.115,1.749,4.04,4.04,0,0,0,.588,1.372,2.964,2.964,0,0,0,.58.662,4.024,4.024,0,0,0,.84.534,3.262,3.262,0,0,0,.665.142,2.509,2.509,0,0,0,.934-.092,3.987,3.987,0,0,0,1.729-.98,6.4,6.4,0,0,0,1.271-1.765c.283-.543.514-1.113.788-1.664a6.342,6.342,0,0,1,.573-.8,3.613,3.613,0,0,1,.3-.243c.1-.047.2-.091.3-.131.11-.022.219-.038.332-.05.055,0,.109.012.164.02s.086.032.128.052.085.06.126.092c.1.114.186.229.271.35.121.222.237.445.356.668.135.255.293.5.45.739a3.574,3.574,0,0,0,1.346,1.2,2.4,2.4,0,0,0,1.475.273,2.581,2.581,0,0,0,2.2-2.822,11.383,11.383,0,0,0-.562-5.029,6.65,6.65,0,0,0-.662-1.187,5.124,5.124,0,0,0-1.562-1.533,12.872,12.872,0,0,0-1.356-.692,8.264,8.264,0,0,0-1.59-.447,6.642,6.642,0,0,0-1.338-.123c-.415,0-.83.029-1.236.068Zm1,3.213a8.421,8.421,0,0,1,1.342.144,8.847,8.847,0,0,1,1.187.47,4.915,4.915,0,0,1,.507.354,6.958,6.958,0,0,1,.433.552,6.487,6.487,0,0,1,.374.82,8.882,8.882,0,0,1,.189,1.241c-.056-.083-.114-.164-.175-.243a4,4,0,0,0-2.88-1.462,4.474,4.474,0,0,0-2.639.739,6.143,6.143,0,0,0-2.127,2.581c-.257.5-.47,1.031-.724,1.538a6.182,6.182,0,0,1-.391.556c-.016-.125-.028-.251-.036-.376a8.33,8.33,0,0,1,.167-1.266,5.559,5.559,0,0,1,.322-.784,1.367,1.367,0,0,0,.133-.644q.4-.84.831-1.664a11.358,11.358,0,0,1,1.216-1.845c.123-.109.251-.209.385-.307a4.242,4.242,0,0,1,.453-.2,9.157,9.157,0,0,1,1.433-.2Zm4.348,5.388Zm-9.841,2.231h0Z" transform="translate(10.495 1.306)" fill="#cac1ca"/><path d="M333.751,118.61c-6.367,3.46-12.821,6.759-19.233,10.133-3.172,1.667-6.305,3.4-9.514,5-1.534.763-3.047,1.553-4.533,2.405q-1.135.656-2.265,1.321l-1.032.619-.073.043-.068.041-.055.034-.011.006c-.351.213-.7.423-1.055.634-.749.447-1.5.888-2.255,1.326-1.5.864-3,1.728-4.479,2.622a62.8,62.8,0,0,0-8.253,5.663,9.046,9.046,0,0,0-1.032,1.024,3.782,3.782,0,0,0-1.139,2.415,2.975,2.975,0,0,0,.176,1.1,5.063,5.063,0,0,0,.452.83,3.309,3.309,0,0,0,.679.679,4.749,4.749,0,0,0,.813.5,11.305,11.305,0,0,0,3.182,1.068,21.964,21.964,0,0,0,2.471.352q1.363.133,2.73.213c1.717.1,3.433.185,5.15.327,1.8.152,3.6.3,5.4.458,3.356.295,6.714.552,10.069.852,3.471.312,6.936.664,10.393,1.095,1.71.212,3.415.463,5.132.615.794.07,1.587.138,2.381.21.372.035.745.073,1.117.11a12.974,12.974,0,0,0,1.674.052,1.57,1.57,0,0,0,1.066-.638,1.646,1.646,0,0,0-.331-2.306c-.123-.07-.248-.138-.372-.209a1.654,1.654,0,0,0-.82-.107c-.68-.016-1.36-.117-2.035-.18-.789-.073-1.578-.138-2.366-.209-1.71-.152-3.407-.4-5.107-.615-3.469-.432-6.948-.785-10.431-1.1-3.367-.3-6.737-.561-10.106-.856q-2.66-.23-5.316-.451c-1.759-.147-3.52-.231-5.28-.335a32.93,32.93,0,0,1-5.451-.645,9.378,9.378,0,0,1-1.677-.635c-.068-.043-.134-.089-.2-.135.121-.164.249-.323.383-.48a29.359,29.359,0,0,1,4.188-3.224c1.581-1.06,3.2-2.062,4.823-3.049,1.1-.657,2.217-1.289,3.328-1.932,1.289-.745,2.567-1.508,3.843-2.276h0l-.007,0,.007,0A1.653,1.653,0,0,0,299,140.8q2.12-1.266,4.274-2.476c1.509-.845,3.084-1.583,4.632-2.358,1.494-.748,2.964-1.543,4.433-2.338q2.44-1.322,4.9-2.609c5.955-3.117,11.936-6.189,17.842-9.4a1.738,1.738,0,0,0,.866-.891,1.644,1.644,0,0,0-.912-2.141,1.785,1.785,0,0,0-.653-.124,1.344,1.344,0,0,0-.628.141Zm-34.683,22.15-.059.036h0l.058-.035Zm-17.25,10.776c.046.076.092.152.138.229a1.637,1.637,0,0,1-.138-.229Zm.206.573,0,.162a1.372,1.372,0,0,1-.006-.157l0,0Zm1.679.519.173.042-.173-.042Z" transform="translate(0 4.769)" fill="#cac1ca"/><path d="M346.583,121.6a1.66,1.66,0,0,0-.612,1.1,1.561,1.561,0,0,0,.346,1.211c1.464,1.447,2.96,2.852,4.526,4.187,1.321,1.122,2.692,2.186,3.989,3.333,1.342,1.186,2.636,2.414,3.957,3.622q2.048,1.872,4.129,3.714c1.292,1.144,2.553,2.315,3.8,3.506,2.155,2.14,4.247,4.338,6.416,6.464.084.083.167.164.251.245.1.106.21.2.319.309.183.18.368.361.554.541a1.66,1.66,0,0,0,.259.252l.175.169c1.129,1.091,2.268,2.172,3.4,3.259,1.725,1.692,3.385,3.443,5.038,5.208.8.855,1.587,1.722,2.383,2.585.4.435.808.872,1.206,1.312.335.369.665.737.96,1.133a9.3,9.3,0,0,1-1.662.175,48.032,48.032,0,0,1-4.839-.348c-1.676-.192-3.358-.355-5.037-.535-1.723-.182-3.435-.452-5.147-.733-1.663-.271-3.329-.52-4.988-.818-3.379-.608-6.759-1.246-10.172-1.615-1.668-.18-3.34-.315-5.009-.47-.818-.078-1.631-.155-2.45-.174-.958-.025-1.914.073-2.867.142-.324.023-.65.038-.976.049a17.847,17.847,0,0,1-2.723-.185,1.648,1.648,0,0,0-2.537,2.1,4.15,4.15,0,0,0,.634.647,3.02,3.02,0,0,0,1.415.5c.3.052.6.088.9.115.627.059,1.258.086,1.89.086,1.279,0,2.55-.144,3.828-.2,1.647.049,3.291.243,4.933.392,1.688.152,3.369.332,5.046.573,3.337.476,6.641,1.135,9.966,1.676,1.693.273,3.385.557,5.082.815,1.681.254,3.372.411,5.062.58,1.637.161,3.27.392,4.909.528.882.074,1.766.12,2.653.128a11.114,11.114,0,0,0,2.789-.234,3.448,3.448,0,0,0,2.672-2.183,2.523,2.523,0,0,0,.114-1.093,5.391,5.391,0,0,0-.241-.9,4.414,4.414,0,0,0-.508-.876,2.927,2.927,0,0,0-.222-.3c-.492-.615-1.031-1.188-1.562-1.765-1.15-1.247-2.292-2.5-3.452-3.734-1.185-1.265-2.368-2.527-3.6-3.748-1.337-1.325-2.707-2.62-4.069-3.922-.231-.221-.46-.442-.691-.665h0c-.321-.314-.645-.627-.968-.941h0a1.649,1.649,0,0,0-.277-.272c-2.475-2.44-4.851-4.978-7.364-7.376-2.579-2.461-5.3-4.762-7.911-7.194-1.815-1.692-3.644-3.363-5.564-4.936-.9-.741-1.821-1.471-2.7-2.252-.918-.819-1.818-1.656-2.711-2.5l-.439-.432a1.785,1.785,0,0,0-1.1-.613c-.06-.006-.122-.01-.183-.01a1.673,1.673,0,0,0-1.029.356Zm28.958,24.922.023.022h0l-.021-.022ZM341.95,159.4l.066.037c-.023-.012-.044-.024-.066-.037Zm46.261,4.044c-.019.02-.038.041-.059.06l.059-.06Zm-.212.106c-.007.035-.014.07-.024.1h0l.026-.1Zm-.024.745.022.071-.022-.071Z" transform="translate(11.973 5.322)" fill="#cac1ca"/><path d="M286.331,149.6c-.189,1.723-.391,3.446-.541,5.171a12.681,12.681,0,0,0-.056,1.3,3.336,3.336,0,0,0,.211,1.388,3.24,3.24,0,0,0,1.056,1.26,6.109,6.109,0,0,0,1.367.709c.289.119.586.207.881.3.468.145.944.276,1.418.384.391.089.778.17,1.171.248.17.032.344.058.516.089a7.736,7.736,0,0,0,1.545.072,3.265,3.265,0,0,0,1.182-.318,4.012,4.012,0,0,0,1.363-1.078,8.5,8.5,0,0,0,1.29-2.291,16.4,16.4,0,0,0,.7-2.25,22.659,22.659,0,0,0,.566-2.73,1.649,1.649,0,0,0-3.276-.376c-.1.71-.245,1.4-.409,2.1a14.99,14.99,0,0,1-1.074,2.989,5.382,5.382,0,0,1-.354.484c-.059.054-.12.106-.185.156l-.072.031c-.056.008-.113.016-.168.02a13.738,13.738,0,0,1-2.3-.386,12.24,12.24,0,0,1-2.158-.764c.013-.869.121-1.742.213-2.607q.191-1.761.382-3.52a1.662,1.662,0,0,0-1.45-1.824,1.6,1.6,0,0,0-.183-.011,1.664,1.664,0,0,0-1.641,1.458Zm2.681,6.561.068.067-.067-.061v-.006Zm.111.016.07.04-.07-.04Z" transform="translate(1.389 10.673)" fill="#cac1ca"/><path d="M304.584,151.037c-.224,1.957-.462,3.913-.667,5.873-.019.182-.031.367-.047.552a3.249,3.249,0,0,0,.173,1.559,2.785,2.785,0,0,0,.923,1.132,4.129,4.129,0,0,0,1.381.615q1.467.381,2.948.685a11.3,11.3,0,0,0,2.457.259c.281,0,.558-.011.836-.028.1-.007.2-.024.3-.032a3.728,3.728,0,0,0,.956-.248,4.469,4.469,0,0,0,.779-.435,3.835,3.835,0,0,0,.619-.628,4.031,4.031,0,0,0,.494-.8,9.3,9.3,0,0,0,.428-.947,23.487,23.487,0,0,0,1.225-5.317c.02-.152.042-.3.064-.456a1.649,1.649,0,0,0-3.277-.374c-.159,1.192-.352,2.376-.617,3.553a14.017,14.017,0,0,1-.779,2.108c-.055.083-.113.162-.174.24a5.891,5.891,0,0,1-.728.092,19.434,19.434,0,0,1-4.027-.657c-.231-.06-.46-.122-.686-.2.024-.315.063-.631.1-.945.054-.507.114-1.013.173-1.52q.21-1.851.427-3.7a1.66,1.66,0,0,0-1.45-1.821,1.613,1.613,0,0,0-.185-.011,1.666,1.666,0,0,0-1.643,1.458Zm2.321,6.431.011.018h0l-.011-.018Z" transform="translate(4.994 10.959)" fill="#cac1ca"/><path d="M344.413,155.111c-.148,1.637-.314,3.272-.445,4.909a17.066,17.066,0,0,0-.044,2.476,2.628,2.628,0,0,0,.462,1.253,3.409,3.409,0,0,0,1.3,1.108,8.3,8.3,0,0,0,2.406.751,11.766,11.766,0,0,0,2.157.236,4.447,4.447,0,0,0,.644-.026,4.208,4.208,0,0,0,.823-.219,3,3,0,0,0,.782-.432,4.478,4.478,0,0,0,.686-.637,6.906,6.906,0,0,0,1.286-2.674,36.528,36.528,0,0,0,1-4.795,1.648,1.648,0,0,0-3.274-.376c-.162,1.093-.367,2.176-.6,3.254l0-.016a11.411,11.411,0,0,1-.734,2.222c-.068.1-.14.2-.218.293-.024.02-.049.04-.074.06-.046.022-.091.042-.138.061l-.072.01a12.8,12.8,0,0,1-2.346-.319,6.22,6.22,0,0,1-.83-.313c-.006-.064-.01-.127-.013-.191.022-.888.1-1.772.187-2.656q.169-1.8.33-3.6a1.668,1.668,0,0,0-1.448-1.824,1.5,1.5,0,0,0-.18-.011,1.66,1.66,0,0,0-1.647,1.458Zm2.553,6.592.056.091c-.019-.029-.038-.06-.056-.091Zm3.875.549c-.016.018-.032.035-.049.052l.049-.052Z" transform="translate(12.962 11.77)" fill="#cac1ca"/><path d="M362.72,157.346c-.2,1.78-.423,3.562-.61,5.349-.044.432-.09.867-.12,1.3-.019.266,0,.537.007.8a2.394,2.394,0,0,0,.248.834,2.516,2.516,0,0,0,1.339,1.218,15.555,15.555,0,0,0,3.108.837,10.734,10.734,0,0,0,2.632.3c2.147-.113,2.946-2.457,3.41-4.2a26.488,26.488,0,0,0,.852-4.7,1.649,1.649,0,0,0-3.277-.374,26.688,26.688,0,0,1-.611,3.752,12.449,12.449,0,0,1-.743,2.173l-.047.068a22.4,22.4,0,0,1-2.868-.507c-.253-.068-.5-.14-.751-.224.057-.822.177-1.645.27-2.46q.218-1.9.438-3.8a1.662,1.662,0,0,0-1.45-1.824,1.612,1.612,0,0,0-.185-.011,1.668,1.668,0,0,0-1.643,1.458Zm6.1,7.464a1.136,1.136,0,0,1-.125.037l.125-.037Zm-.1.085-.056.035.056-.035Z" transform="translate(16.56 12.215)" fill="#cac1ca"/><path d="M322.063,175.775q-2.719,1.665-5.44,3.321c-1.466.893-2.94,1.777-4.361,2.742-1.471,1-2.887,2.083-4.309,3.151a45.344,45.344,0,0,0-3.946,3.29,24.3,24.3,0,0,0-3.981,4.4,5.131,5.131,0,0,0-.827,3.561,4.328,4.328,0,0,0,2.054,2.929c1.941,1.17,4.38,1.052,6.532.638a39.854,39.854,0,0,0,5.566-1.562q2.358-.813,4.707-1.647c1.032-.367,2.069-.721,3.105-1.085.971-.343,1.932-.724,2.9-1.085a1.652,1.652,0,0,0,.845-2.169,1.678,1.678,0,0,0-2.174-.844c-1.037.388-2.069.793-3.114,1.162-1.12.4-2.243.777-3.363,1.176-2.284.819-4.575,1.633-6.9,2.338a22.844,22.844,0,0,1-4.231.723,8.178,8.178,0,0,1-1.463-.151,5.408,5.408,0,0,1-.62-.245c-.1-.07-.2-.142-.3-.218-.058-.066-.112-.132-.164-.2s-.077-.167-.11-.252c-.016-.076-.028-.151-.037-.228.01-.117.024-.234.043-.352a5.5,5.5,0,0,1,.21-.531,15.2,15.2,0,0,1,1.78-2.228q.9-.892,1.814-1.757c.587-.554,1.189-1.11,1.826-1.611,1.438-1.131,2.9-2.225,4.373-3.314,2.742-2.032,5.7-3.736,8.6-5.515q1.514-.924,3.031-1.854a1.568,1.568,0,0,0,.613-1.1,1.648,1.648,0,0,0-1.45-1.824,1.533,1.533,0,0,0-.18-.011,1.921,1.921,0,0,0-1.032.357Z" transform="translate(4.057 16.101)" fill="#cac1ca"/><path d="M334.845,179.2a1.651,1.651,0,0,0-.266,2.313c1.641,1.809,3.207,3.683,4.838,5.5a43.351,43.351,0,0,1,4.072,5.392,24.741,24.741,0,0,1,2.289,5.123,11.117,11.117,0,0,1,.4,2.144c0,.1-.012.2-.024.3-.019.052-.04.1-.061.153-.068.034-.138.064-.21.092a7.377,7.377,0,0,1-1.09.13,8.939,8.939,0,0,1-1.619-.2,13.987,13.987,0,0,1-2.535-1.143c-.7-.4-1.39-.8-2.068-1.221-.729-.454-1.434-.957-2.129-1.462-.718-.524-1.4-1.089-2.1-1.637-.665-.516-1.345-1.01-2.027-1.5a1.643,1.643,0,0,0-2.891,1.543,2.592,2.592,0,0,0,.45.681,3.528,3.528,0,0,0,.562.481c.161.113.323.227.482.344.327.239.653.484.977.729.632.48,1.248.984,1.873,1.474a43.64,43.64,0,0,0,7.2,4.418,9.193,9.193,0,0,0,3.56.764,5.772,5.772,0,0,0,3.5-.827c2.253-1.629,1.363-4.832.633-7.032a22.539,22.539,0,0,0-.85-2.159,21.607,21.607,0,0,0-1.084-2.158c-.469-.783-.951-1.55-1.466-2.3-.471-.691-.975-1.356-1.476-2.023-.964-1.278-2.062-2.45-3.119-3.651-1.171-1.333-2.312-2.689-3.5-4a1.727,1.727,0,0,0-1.1-.613,1.589,1.589,0,0,0-.185-.011,1.673,1.673,0,0,0-1.029.356Zm11.444,20.759c-.023.025-.047.05-.072.073l.072-.073Zm-.091.017c-.01.017-.019.035-.03.052l.03-.052Z" transform="translate(10.051 16.782)" fill="#cac1ca"/><path d="M327.693,175.9c-.381.267-.754.541-1.112.834a12.143,12.143,0,0,0-1.235,1.235,9.718,9.718,0,0,0-1.808,3,24.4,24.4,0,0,0-.89,2.754,52.7,52.7,0,0,0-1.03,5.178c-.231,1.589-.4,3.186-.565,4.783-.17,1.659-.354,3.319-.541,4.979s-.351,3.3-.44,4.953c-.052.912-.078,1.821-.052,2.735.014.433.037.863.091,1.291a6.328,6.328,0,0,0,.358,1.322,4.725,4.725,0,0,0,.273.58,4.4,4.4,0,0,0,.378.579c.157.157.317.308.475.463l.192.113a1.426,1.426,0,0,0,.577.271,2.4,2.4,0,0,0,1.089.106,4.92,4.92,0,0,0,.881-.278,3.161,3.161,0,0,0,.62-.4,5.718,5.718,0,0,0,1.492-1.935,19.5,19.5,0,0,0,.963-2.235,23.85,23.85,0,0,0,.824-2.6c.206-.821.392-1.646.567-2.473.373-1.767.677-3.554,1.022-5.327.32-1.639.6-3.288.989-4.911.309-1.2.632-2.405.884-3.624.233-1.108.424-2.228.6-3.348a10.226,10.226,0,0,0-.017-3.843,9.338,9.338,0,0,0-1.7-3.5,1.489,1.489,0,0,0-.6-.475,1.661,1.661,0,0,0-1.072-.572,1.442,1.442,0,0,0-.188-.012,1.754,1.754,0,0,0-1.025.357Zm.813,3.532a7.435,7.435,0,0,1,.5,1.1,8.363,8.363,0,0,1,.2,1.29,22.6,22.6,0,0,1-.448,3.331c-.207,1.163-.44,2.315-.718,3.461-.322,1.236-.647,2.47-.9,3.725-.224,1.147-.433,2.3-.659,3.448-.474,2.382-.868,4.778-1.442,7.14a24.459,24.459,0,0,1-1.562,4.132c-.029.048-.059.095-.089.14a9.882,9.882,0,0,1-.1-1.159,87.747,87.747,0,0,1,.8-9.7c.361-3.308.654-6.618,1.289-9.892.137-.7.307-1.388.481-2.079a17.585,17.585,0,0,1,1.238-3.237,9.787,9.787,0,0,1,1.1-1.415c.1-.1.206-.192.312-.284Zm-4.852,28.572.115.065a.911.911,0,0,1-.113-.059l0-.006Z" transform="translate(8.209 16.126)" fill="#cac1ca"/><g transform="translate(348.109 373.429) rotate(-164)"><path d="M4.554.453C3.77,1.284,3,2.123,2.219,2.958c-.625.675-1.2,1.4-1.806,2.1Q.2,5.3,0,5.55l.243.281c.649.749,1.29,1.5,1.951,2.239q.273-.345.548-.691C3.325,6.7,3.907,6.022,4.491,5.346c.318-.372.667-.719,1-1.078.447-.481.892-.958,1.344-1.438A1.669,1.669,0,0,0,6.884.5,1.711,1.711,0,0,0,5.659,0,1.5,1.5,0,0,0,4.554.453Z" transform="translate(14.832 0)" fill="#cac1ca"/><path d="M4.838,2.031c-.5.8-.993,1.607-1.468,2.422C2.436,6.069,1.565,7.707.717,9.372q-.369.721-.717,1.46l3.027,1.3A76.212,76.212,0,0,1,6.683,5.316c.579-.933,1.149-1.873,1.759-2.782l-.084-.091C7.621,1.644,6.906.82,6.194,0c-.475.655-.927,1.342-1.356,2.031Z" transform="translate(5.679 9.454)" fill="#cac1ca"/><path d="M2.185,1.553c-.283.85-.564,1.7-.808,2.561C.88,5.886.428,7.663.052,9.465.034,9.55.017,9.635,0,9.72q1.59.417,3.183.826c.192-.911.392-1.819.615-2.722.3-1.211.637-2.406.975-3.608.161-.577.379-1.143.568-1.711.135-.406.283-.807.435-1.206Q4.268.647,2.754,0c-.2.512-.393,1.029-.569,1.553Z" transform="translate(1.045 24.687)" fill="#cac1ca"/><path d="M.254.711C.071,2.478.02,4.25,0,6.024c-.01.908.02,1.808.053,2.715.008.217.018.433.031.65,1.09-.106,2.181-.215,3.27-.333-.01-.281-.017-.561-.026-.843-.022-.549-.042-1.1-.035-1.645.006-.723-.019-1.454.02-2.176C3.381,3.2,3.442,2.015,3.551.83Q1.936.423.324,0C.3.236.278.475.254.711Z" transform="translate(0 39.144)" fill="#cac1ca"/><path d="M2.071.308A16.922,16.922,0,0,0,0,.827Q.315,2.455.6,4.089a18.936,18.936,0,0,1,3.436-.763,15.084,15.084,0,0,1,3.248.1c.27.052.536.108.8.173q.324-.761.646-1.526c.218-.514.432-1.029.639-1.548A.822.822,0,0,1,9.275.5,14.832,14.832,0,0,0,5.4,0,18.935,18.935,0,0,0,2.071.308Z" transform="translate(46.192 45.073)" fill="#cac1ca"/><path d="M6.375.145a35.289,35.289,0,0,0-2.85,2.286,22.448,22.448,0,0,0-2.6,2.9C.595,5.743.289,6.175,0,6.617Q1.119,7.935,2.246,9.246c.086-.147.174-.295.261-.442.168-.288.372-.554.562-.827.273-.391.548-.775.838-1.147a21.9,21.9,0,0,1,1.9-2.018c.447-.418.917-.814,1.4-1.194Q6.908,1.808,6.574,0c-.065.049-.133.1-.2.145Z" transform="translate(35.159 48.13)" fill="#cac1ca"/><path d="M1.646,1.064c-.277.848-.577,1.689-.8,2.553C.6,4.537.367,5.448.175,6.381q-.092.45-.175.9c1.017.483,2.042.947,3.071,1.405l.058-.354q.2-.957.391-1.907c.12-.579.3-1.15.445-1.723.162-.611.342-1.224.541-1.83Q3.265,1.441,2.037,0c-.143.348-.275.7-.391,1.064Z" transform="translate(30.686 59.276)" fill="#cac1ca"/><path d="M5.653,2.342a55.174,55.174,0,0,0,.293,6.106c-.719-.052-1.435-.124-2.155-.209A30.869,30.869,0,0,1,.384,7.471C.3,7.447.218,7.424.135,7.4Q.08,9.088,0,10.779c.227.058.452.116.679.177a31.028,31.028,0,0,0,5.616.83c.024,0,.049,0,.073,0,.264,1.777.586,3.547.944,5.31q1.689.025,3.376.048c-.366-1.773-.7-3.553-.985-5.339a24.814,24.814,0,0,0,4.105-.538,41.66,41.66,0,0,0,4.6-1.26c-.27-1.064-.523-2.132-.769-3.2A34.345,34.345,0,0,1,10.8,8.453c-.52.044-1.037.07-1.555.084-.094-.957-.182-1.91-.236-2.873C8.95,4.542,8.938,3.417,8.95,2.29c0-.281.007-.559.012-.839-.5-.224-1-.446-1.5-.67Q6.595.39,5.727,0C5.69.778,5.66,1.559,5.653,2.342Z" transform="translate(24.323 71.526)" fill="#cac1ca"/><path d="M.487,2.123A74.646,74.646,0,0,0,3.595,12.355q.383.985.789,1.958,1.48-.683,2.963-1.363c-.091-.212-.179-.427-.263-.642-.234-.608-.471-1.213-.7-1.819C5.816,8.883,5.243,7.275,4.791,5.632,4.292,3.813,3.84,1.988,3.416.15,3.406.115,3.4.08,3.391.042Q1.693.026,0,0,.241,1.063.487,2.123Z" transform="translate(32.673 93.417)" fill="#cac1ca"/><path d="M0,1.87l.078.1C2.255,4.721,4.535,7.4,6.838,10.052q.957,1.1,1.928,2.188.957-1.4,1.927-2.788C8.468,6.924,6.267,4.374,4.14,1.762Q3.428.887,2.722,0,1.362.939,0,1.87Z" transform="translate(47.442 122.711)" fill="#cac1ca"/><path d="M0,1.376c.631,1.231,1.307,2.439,1.993,3.64A52.2,52.2,0,0,0,4.97,9.444q.237.333.482.663,1.356-.93,2.711-1.863l-.379-.5q-.635-.887-1.266-1.775c-.382-.532-.724-1.089-1.076-1.644C4.717,3.186,4.058,2,3.424.806Q3.208.4,3,0,1.5.687,0,1.376Z" transform="translate(39.058 110.704)" fill="#cac1ca"/><path d="M.865,1.1Q.433,2.123,0,3.144A10.868,10.868,0,0,1,1.26,4.489a9.45,9.45,0,0,1,.771,1.393A15.06,15.06,0,0,1,2.7,8.816,12.133,12.133,0,0,1,2.7,10.5c1.086.219,2.175.435,3.264.64a12.987,12.987,0,0,0-.3-4.46,14.328,14.328,0,0,0-.671-2.218A10.378,10.378,0,0,0,3,1.459,11.267,11.267,0,0,0,1.321,0Q1.1.552.865,1.1Z" transform="translate(58.551 47.719)" fill="#cac1ca"/><path d="M5.156,1.368q-.309.61-.617,1.221c-.115.227-.265.441-.393.657s-.258.46-.408.673q-.45.642-.9,1.279c-.26.372-.565.719-.855,1.073L2.1,6.13c-.68.759-1.371,1.5-2.1,2.209q1.165,1.167,2.337,2.328c.115-.111.229-.224.342-.339A28.119,28.119,0,0,0,4.654,8.164c.314-.393.631-.788.945-1.183.288-.357.536-.752.8-1.128A17.492,17.492,0,0,0,7.678,3.659c.342-.681.661-1.368.939-2.078.121-.309.228-.621.324-.935Q7.306.333,5.673,0c-.153.46-.325.916-.518,1.368Z" transform="translate(54.649 62.886)" fill="#cac1ca"/><path d="M2.135,1.358c-.7.365-1.415.7-2.135,1.01Q.369,4,.767,5.616c.408-.169.813-.344,1.216-.529a24.211,24.211,0,0,0,2.38-1.176l1.254-.743c.4-.236.771-.512,1.155-.769l.049-.034Q5.625,1.189,4.441,0c-.749.484-1.51.946-2.306,1.358Z" transform="translate(46.49 74.26)" fill="#cac1ca"/><path d="M1.086.123C.749,1.2.374,2.26,0,3.32A18.24,18.24,0,0,0,3.138,5.474l1.211.61c.192.1.391.175.585.265.21.094.422.2.635.294q.076-1.78.125-3.563-.442-.216-.885-.436A18.86,18.86,0,0,1,1.592.409L1.126,0c-.014.04-.025.081-.04.123Z" transform="translate(14.027 74.076)" fill="#cac1ca"/><path d="M0,2.328c.059.111.117.222.175.335.445.844.918,1.657,1.408,2.475.424.711.916,1.38,1.388,2.062.326.472.712.91,1.076,1.356.248.306.5.6.766.884q.306.327.615.651c.171-.5.339-1.008.5-1.515q.329-1.045.655-2.091c-.12-.151-.236-.307-.357-.456-.17-.212-.344-.424-.514-.635C5.231,4.7,4.752,4.019,4.32,3.3c-.239-.4-.5-.793-.718-1.2Q3.19,1.316,2.779.538C2.686.36,2.595.18,2.5,0Q1.255,1.167,0,2.328Z" transform="translate(4.747 63.779)" fill="#cac1ca"/><path d="M0,.33C.019.468.035.608.054.746c.105.849.278,1.693.426,2.537A24.386,24.386,0,0,0,2.047,8.437l.06.144q1.288-1.2,2.567-2.4a26.634,26.634,0,0,1-.929-3.37C3.614,2.168,3.513,1.518,3.4.873,3.349.583,3.307.293,3.265,0,2.177.117,1.089.224,0,.33Z" transform="translate(0.535 52.954)" fill="#cac1ca"/></g></g></svg>