<svg xmlns="http://www.w3.org/2000/svg" width="36.82" height="36.82" viewBox="0 0 36.82 36.82"><path d="M175.427,193.951a1.548,1.548,0,0,0,.568,2.113,18.421,18.421,0,1,0-5.136-4.387,1.547,1.547,0,0,0,2.406-1.947,15.142,15.142,0,0,1-3.4-9.625,15.307,15.307,0,1,1,7.678,13.278,1.548,1.548,0,0,0-2.113.568Z" transform="translate(-166.768 -161.695)" fill="#fdcc5c"/><path d="M232.978,225.319a1.546,1.546,0,0,0,.917-.3l10.12-7.447a1.547,1.547,0,0,0,0-2.492l-10.12-7.447a1.547,1.547,0,0,0-2.464,1.246v14.894a1.548,1.548,0,0,0,1.547,1.548Zm1.548-13.382,5.962,4.387-5.962,4.387Z" transform="translate(-218.09 -197.915)" fill="#fdcc5c"/></svg>