<svg xmlns="http://www.w3.org/2000/svg" width="66.089" height="266.932" viewBox="0 0 66.089 266.932"><g transform="translate(-840.372 -1028.716)"><g transform="translate(826.372 1301.461) rotate(-90)"><path d="M3.876,2.968c-.556-.006-1.114-.053-1.671-.08-.438-.024-.874-.043-1.312-.082C.6,2.78.3,2.753,0,2.728.086,1.819.176.908.274,0L.71.041C1.7.129,2.687.18,3.678.233c1,.01,1.993.026,2.99.012Q6.587,1.611,6.53,2.979q-.366.006-.731.006c-.642,0-1.283-.009-1.923-.017Z" transform="translate(26.04 63.104)" fill="#cac1ca"/><path d="M.084,1.7C.1,1.408.119,1.12.135.833.891.784,1.647.727,2.4.647,4.013.473,5.612.253,7.215,0c.081.251.163.5.244.753q.306.943.617,1.886c-1.89.327-3.791.569-5.7.773C1.589,3.5.8,3.558,0,3.6Q.041,2.651.084,1.7Z" transform="translate(36.565 62.335)" fill="#cac1ca"/><path d="M0,2.138l.592-.121q.927-.237,1.853-.478c.615-.158,1.219-.363,1.829-.548Q5.81.524,7.332,0q.34,1.33.69,2.659c-1.476.493-2.96.958-4.451,1.412-.524.158-1.066.273-1.6.41q-.556.144-1.12.267Q.424,3.443,0,2.138Z" transform="translate(47.748 59.466)" fill="#cac1ca"/><path d="M0,3.374c.018-.008.037-.016.055-.026.564-.252,1.157-.476,1.706-.763Q2.5,2.2,3.234,1.817C4.008,1.352,4.792.9,5.544.4l.6-.4q.684,1.2,1.37,2.394c-.274.189-.549.378-.834.548l-1.552.931c-.426.256-.866.484-1.307.714-.391.205-.778.431-1.183.611q-.805.363-1.614.723c-.107.049-.217.094-.328.139Q.344,4.716,0,3.374Z" transform="translate(58.852 54.722)" fill="#cac1ca"/><path d="M0,3.47c.129-.117.258-.234.385-.351C1.519,2.088,2.641,1.043,3.764,0q.555.778,1.11,1.557c.165.231.329.461.5.688Q3.4,4.057,1.429,5.864.71,4.67,0,3.47Z" transform="translate(85.056 34.351)" fill="#cac1ca"/><path d="M1.08,5.788Q.529,4.817,0,3.835q1.462-1.3,2.923-2.6L4.3,0q.714,1.2,1.435,2.4Q3.557,4.352,1.364,6.29c-.094-.168-.19-.334-.284-.5Z" transform="translate(77.737 40.543)" fill="#cac1ca"/><path d="M0,5.346Q1.745,4.038,3.4,2.621,4.919,1.318,6.424,0,7.1,1.23,7.792,2.453C6.739,3.379,5.681,4.3,4.6,5.192c-.864.714-1.73,1.415-2.617,2.1-.2.156-.4.308-.606.459Q.687,6.552,0,5.346Z" transform="translate(68.259 47.066)" fill="#cac1ca"/><path d="M5.159,4.018c-.991-.236-1.974-.47-2.951-.753C1.6,3.088.981,2.916.375,2.715.25,2.674.125,2.631,0,2.588Q.437,1.292.889,0c.272.1.543.189.815.279.95.275,1.9.55,2.859.78.454.107.9.224,1.358.308.234.043.467.091.7.138-.1.912-.187,1.825-.273,2.739-.4-.067-.8-.132-1.191-.226Z" transform="translate(15.733 61.075)" fill="#cac1ca"/><path d="M6.225,6.617A27.248,27.248,0,0,1,3,4.52Q1.718,3.566.516,2.514.255,2.286,0,2.052.915,1.027,1.826,0q.5.459,1.03.895c.39.324.772.668,1.178.97.446.331.889.661,1.335.991.4.3.836.56,1.258.835.18.106.361.211.543.313-.309.875-.608,1.755-.9,2.635l-.041-.022Z" transform="translate(5.813 55.414)" fill="#cac1ca"/></g><g transform="translate(678.443 1271.979) rotate(-90)"><path d="M91.434,161.947c-.556.006-1.114.053-1.671.08-.438.024-.874.043-1.312.082-.3.026-.594.053-.893.078.086.909.176,1.82.274,2.728l.436-.041c.988-.088,1.977-.139,2.968-.192,1-.01,1.993-.026,2.99-.012q-.081-1.366-.138-2.734-.366-.006-.731-.006c-.642,0-1.283.009-1.923.017Z" fill="#cac1ca"/><path d="M98.167,163.987c.017.289.035.577.051.864.756.049,1.512.106,2.266.186,1.612.174,3.211.394,4.814.647.081-.251.163-.5.244-.753q.306-.943.617-1.886c-1.89-.327-3.791-.569-5.7-.773-.791-.084-1.585-.146-2.38-.193q.041.954.084,1.908Z" fill="#cac1ca"/><path d="M109.266,166.415l.592.121q.927.237,1.853.478c.615.158,1.219.363,1.829.548q1.536.467,3.058.991.34-1.33.69-2.659c-1.476-.493-2.96-.958-4.451-1.412-.524-.158-1.066-.273-1.6-.41q-.556-.144-1.12-.267-.431,1.305-.854,2.61Z" fill="#cac1ca"/><path d="M120.37,169.923c.018.008.037.016.055.026.564.252,1.157.476,1.706.763q.735.385,1.473.768c.774.465,1.558.913,2.31,1.417l.6.4q.684-1.2,1.37-2.394c-.274-.189-.549-.378-.834-.548l-1.552-.931c-.426-.256-.866-.484-1.307-.714-.391-.205-.778-.431-1.183-.611q-.805-.363-1.614-.723c-.107-.049-.217-.094-.328-.139q-.35,1.344-.694,2.686Z" fill="#cac1ca"/><path d="M240.852,211.738c-.457.827-.952,1.625-1.485,2.41-.223.325-.458.641-.7.951.661.65,1.319,1.3,1.978,1.955.08-.1.158-.2.236-.306.6-.815,1.182-1.643,1.7-2.513q.359-.6.682-1.219-1.131-.788-2.276-1.558c-.044.094-.09.187-.135.28Z" fill="#cac1ca"/><path d="M235.317,218.478c-.809.636-1.652,1.215-2.519,1.767-.6.363-1.216.718-1.837,1.056q.665,1.194,1.327,2.389c.6-.327,1.192-.669,1.78-1.022.912-.548,1.782-1.155,2.638-1.787.364-.267.708-.558,1.046-.854l.124-.109q-.978-.971-1.958-1.938-.3.255-.6.5Z" fill="#cac1ca"/><path d="M226.9,223.191c-.616.258-1.253.462-1.888.667a34.709,34.709,0,0,1-3.992.972c-.759.125-1.515.224-2.277.32-.719.088-1.454.1-2.181.136-.188,0-.375.01-.561.016.08.749.164,1.5.262,2.247.019.156.039.314.06.47.307-.009.614-.021.923-.037.518-.023,1.032-.054,1.548-.093s1.037-.11,1.557-.174c.966-.121,1.915-.326,2.867-.532.448-.1.889-.233,1.333-.348.506-.132,1.012-.283,1.509-.445q1.324-.431,2.612-.964l-1.342-2.417-.43.182Z" fill="#cac1ca"/><path d="M205.611,225.265c-.033.622-.037,1.244-.027,1.865.774.148,1.558.263,2.337.368,1.449.2,2.9.386,4.367.482-.117-.927-.216-1.857-.314-2.787-.518-.039-1.035-.086-1.551-.145-1.018-.117-2.039-.238-3.049-.4-.539-.088-1.086-.156-1.622-.267l-.074-.014c-.028.3-.051.6-.067.9Z" fill="#cac1ca"/><path d="M194.79,220.9q-.378.858-.747,1.723c-.113.267-.224.532-.336.8.764.329,1.528.661,2.306.95a58.573,58.573,0,0,0,5.581,1.842c.012-.939.075-1.871.173-2.8-.833-.24-1.653-.5-2.478-.771-1.527-.5-3.022-1.11-4.5-1.742Z" fill="#cac1ca"/><path d="M183.869,217.558c-.128.32-.254.639-.377.961,2.153,1.158,4.352,2.231,6.564,3.271l.237-.565q.416-.981.851-1.956c-1.873-.874-3.725-1.79-5.569-2.73-.351-.191-.7-.38-1.055-.571q-.332.792-.651,1.59Z" fill="#cac1ca"/><path d="M171.619,211.172c1.106.737,2.232,1.451,3.342,2.177,1.657,1.081,3.323,2.143,5.016,3.168.071-.18.142-.361.214-.54q.408-1.019.838-2.026l-.531-.321c-1.689-1.022-3.333-2.123-4.986-3.2-.848-.556-1.694-1.113-2.535-1.68q-.68,1.211-1.358,2.423Z" fill="#cac1ca"/><path d="M163.927,205.251l-.088.152q2.23,1.766,4.518,3.454.674-1.206,1.349-2.409c-1.279-.94-2.539-1.909-3.785-2.891-.237-.185-.469-.372-.7-.56l-1.29,2.254Z" fill="#cac1ca"/><path d="M154.513,194.7q-.6.846-1.2,1.69,1.134,1.023,2.28,2.038c1.493,1.327,2.986,2.655,4.518,3.935l.6.5q.678-1.224,1.373-2.438-2.734-2.294-5.389-4.679-.894-.8-1.778-1.606c-.133.186-.266.375-.4.562Z" fill="#cac1ca"/><path d="M146.574,190.2c.129.117.258.234.385.351,1.134,1.031,2.256,2.076,3.379,3.119q.555-.778,1.11-1.557c.165-.231.329-.461.5-.688q-1.968-1.812-3.942-3.619-.719,1.194-1.429,2.394Z" fill="#cac1ca"/><path d="M140.335,181.688q-.551.971-1.08,1.953,1.462,1.3,2.923,2.6l1.375,1.231q.714-1.2,1.435-2.4-2.177-1.953-4.369-3.891c-.094.168-.19.334-.284.5Z" fill="#cac1ca"/><path d="M129.777,175.607q1.745,1.308,3.4,2.725,1.52,1.3,3.025,2.621.678-1.23,1.368-2.453c-1.053-.926-2.111-1.847-3.191-2.739-.864-.714-1.73-1.415-2.617-2.1-.2-.156-.4-.308-.606-.459q-.691,1.2-1.378,2.406Z" fill="#cac1ca"/><path d="M82.41,162.926c-.991.236-1.974.47-2.951.753-.613.177-1.227.349-1.833.55-.125.041-.25.084-.375.127q.437,1.3.889,2.588c.272-.1.543-.189.815-.279.95-.275,1.9-.55,2.859-.78.454-.107.9-.224,1.358-.308.234-.043.467-.091.7-.138-.1-.912-.187-1.825-.273-2.739-.4.067-.8.132-1.191.226Z" fill="#cac1ca"/><path d="M73.556,165.988a27.247,27.247,0,0,0-3.223,2.1q-1.284.954-2.486,2.006-.261.228-.516.462.915,1.024,1.826,2.052.5-.459,1.03-.895c.39-.324.772-.668,1.178-.97.446-.331.889-.661,1.335-.991.4-.3.836-.56,1.258-.835.18-.106.361-.211.543-.313-.309-.875-.608-1.755-.9-2.635l-.041.022Z" fill="#cac1ca"/><path d="M62.431,176.638c-.309.578-.618,1.153-.913,1.737q1.081.89,2.165,1.777c.372-.753.762-1.5,1.157-2.238a24.324,24.324,0,0,1,1.591-2.358q-.932-1.05-1.865-2.1a20.006,20.006,0,0,0-2.135,3.179Z" fill="#cac1ca"/></g></g></svg>