<svg xmlns="http://www.w3.org/2000/svg" width="61.558" height="142.91" viewBox="0 0 61.558 142.91"><g transform="translate(-11.992 -382.739) rotate(45)"><path d="M299.5,242.581c-.152,1.474-.195,2.952-.21,4.431-.008.757.017,1.508.044,2.264.007.181.015.361.026.542.909-.088,1.819-.179,2.727-.278-.008-.234-.014-.468-.022-.7-.018-.458-.035-.914-.029-1.372.005-.6-.016-1.213.017-1.815.055-.991.106-1.981.2-2.97q-1.347-.339-2.691-.692c-.019.2-.039.4-.059.593Z" fill="#cac1ca"/><path d="M339.54,247.19a14.115,14.115,0,0,0-1.727.433q.263,1.357.5,2.72a15.791,15.791,0,0,1,2.866-.636,12.583,12.583,0,0,1,2.709.082c.225.043.447.09.666.144q.27-.635.539-1.273c.182-.429.36-.858.533-1.291a.691.691,0,0,1-.078-.021,12.37,12.37,0,0,0-3.234-.415,15.8,15.8,0,0,0-2.775.257Z" fill="#cac1ca"/><path d="M333.928,249.6a29.427,29.427,0,0,0-2.377,1.907,18.72,18.72,0,0,0-2.172,2.416c-.272.346-.527.706-.768,1.075q.933,1.1,1.873,2.193c.072-.123.145-.246.218-.369.14-.24.31-.462.469-.69.228-.326.457-.646.7-.957a18.273,18.273,0,0,1,1.584-1.683c.373-.349.765-.679,1.168-1q-.249-1.509-.528-3.017c-.054.041-.111.08-.166.121Z" fill="#cac1ca"/><path d="M326.253,259.666c-.231.707-.481,1.409-.67,2.129-.2.768-.4,1.528-.557,2.306q-.076.375-.146.751c.848.4,1.7.79,2.561,1.172l.048-.295q.163-.8.326-1.591c.1-.483.246-.959.371-1.437.135-.51.285-1.021.451-1.526q-1.033-1.194-2.058-2.4c-.119.29-.229.586-.326.887Z" fill="#cac1ca"/><path d="M324.288,270.949a46.015,46.015,0,0,0,.244,5.093c-.6-.043-1.2-.1-1.8-.174a25.749,25.749,0,0,1-2.842-.641c-.07-.02-.138-.039-.207-.061q-.047,1.41-.113,2.82c.189.048.377.1.566.148a25.881,25.881,0,0,0,4.684.692c.02,0,.041,0,.061,0,.22,1.482.489,2.958.787,4.429q1.408.021,2.816.04c-.3-1.479-.584-2.963-.822-4.453a20.7,20.7,0,0,0,3.424-.449,34.77,34.77,0,0,0,3.834-1.051c-.225-.887-.436-1.778-.641-2.671a28.65,28.65,0,0,1-5.7,1.371c-.434.037-.865.058-1.3.07-.078-.8-.152-1.593-.2-2.4-.051-.936-.061-1.874-.051-2.814,0-.234.006-.466.01-.7l-1.25-.559L324.35,269c-.031.649-.056,1.3-.062,1.953Z" fill="#cac1ca"/><path d="M326.943,289.025a62.258,62.258,0,0,0,2.592,8.534q.319.822.658,1.633,1.234-.57,2.471-1.137c-.076-.177-.149-.356-.219-.535-.2-.507-.393-1.012-.588-1.517-.469-1.34-.947-2.681-1.324-4.052-.416-1.517-.793-3.039-1.147-4.572-.008-.029-.013-.058-.021-.09q-1.416-.014-2.828-.035.2.887.406,1.771Z" fill="#cac1ca"/><path d="M400.162,336.94q-2.665.573-5.359.98c.013.6.023,1.19.035,1.784.006.332.008.663.01.995.716-.106,1.431-.228,2.142-.353q2.241-.395,4.461-.876.617-.133,1.23-.277-.468-1.3-.935-2.6c-.528.116-1.057.228-1.584.342Z" fill="#cac1ca"/><path d="M386.19,338.518c-.869-.015-1.742-.025-2.611-.084q-.191,1.357-.383,2.712l.1.006c.824.053,1.639.088,2.463.1.754.013,1.5,0,2.258-.014.944-.013,1.892-.064,2.837-.132V341c0-.878-.007-1.755-.019-2.631-1.546.107-3.1.176-4.645.147Z" fill="#cac1ca"/><path d="M372.581,336.4c-.344.778-.694,1.548-1.053,2.317.945.323,1.9.622,2.869.885,1.459.4,2.94.692,4.424.983.136.026.273.05.41.072q.193-1.353.381-2.7l-.051-.007c-1.051-.205-2.094-.42-3.137-.656-.99-.226-1.966-.51-2.937-.815q-.412-.127-.822-.263c-.03.065-.057.127-.084.189Z" fill="#cac1ca"/><path d="M358.879,332.651q.563.363,1.131.716c.541.339,1.084.688,1.644.992.672.367,1.34.733,2.03,1.065q1.089.522,2.187,1.023.961.437,1.932.846c.171-.36.338-.721.5-1.086l.622-1.411q-.669-.279-1.337-.562c-.469-.21-.936-.415-1.4-.635-.6-.291-1.223-.558-1.811-.88-.639-.347-1.277-.692-1.9-1.066s-1.256-.768-1.879-1.16c-.049-.03-.1-.059-.143-.09-.514.759-1.041,1.5-1.578,2.248Z" fill="#cac1ca"/><path d="M348.972,324.874c.03.032.059.061.088.09.533.54,1.113,1.037,1.668,1.554.52.484,1.078.93,1.617,1.394.338.291.7.558,1.049.836.27.215.535.439.813.644q.682.506,1.371,1c.532-.737,1.057-1.479,1.567-2.231-.981-.689-1.917-1.439-2.852-2.186-.528-.452-1.071-.889-1.579-1.359-.554-.517-1.134-1.014-1.666-1.552-.164-.166-.33-.33-.5-.495q-.8,1.149-1.58,2.3Z" fill="#cac1ca"/><path d="M338.855,313.247l.065.082c1.816,2.3,3.717,4.531,5.638,6.742q.8.918,1.608,1.825.8-1.166,1.607-2.325c-1.855-2.109-3.691-4.236-5.465-6.414q-.594-.73-1.183-1.47-1.134.783-2.27,1.56Z" fill="#cac1ca"/><path d="M331.863,302.82c.526,1.027,1.09,2.034,1.662,3.036a43.545,43.545,0,0,0,2.483,3.693q.2.277.4.553,1.131-.775,2.261-1.554l-.316-.413q-.529-.74-1.056-1.48c-.319-.444-.6-.908-.9-1.371-.605-.955-1.154-1.941-1.683-2.94q-.18-.336-.358-.672-1.248.573-2.5,1.148Z" fill="#cac1ca"/><path d="M348.842,250.059q-.36.852-.721,1.7a9.068,9.068,0,0,1,1.051,1.122,7.884,7.884,0,0,1,.643,1.162,12.565,12.565,0,0,1,.562,2.447,10.118,10.118,0,0,1-.005,1.4c.906.183,1.814.363,2.722.534a10.829,10.829,0,0,0-.25-3.72,11.947,11.947,0,0,0-.56-1.85,8.654,8.654,0,0,0-1.662-2.5,9.4,9.4,0,0,0-1.4-1.217q-.187.461-.381.919Z" fill="#cac1ca"/><path d="M349.166,262.931q-.258.508-.515,1.018c-.1.189-.221.368-.328.548s-.215.384-.34.561q-.375.535-.75,1.067c-.217.31-.471.6-.713.895l.094-.117c-.567.633-1.143,1.247-1.748,1.842q.972.974,1.949,1.942c.1-.093.191-.187.285-.283a23.449,23.449,0,0,0,1.648-1.8c.262-.328.526-.657.788-.987.24-.3.447-.627.667-.941a14.591,14.591,0,0,0,1.067-1.829c.285-.568.551-1.141.783-1.733.1-.258.19-.518.27-.78q-1.363-.261-2.725-.539c-.128.384-.271.764-.432,1.141Z" fill="#cac1ca"/><path d="M339.842,272.409c-.584.3-1.18.581-1.781.842q.307,1.357.64,2.709c.34-.141.678-.287,1.014-.441a20.206,20.206,0,0,0,1.985-.981l1.046-.62c.33-.2.643-.427.963-.641l.041-.028q-1-.981-1.985-1.973c-.625.4-1.259.789-1.923,1.133Z" fill="#cac1ca"/><path d="M311.892,271.226c-.281.895-.594,1.782-.906,2.666a15.22,15.22,0,0,0,2.617,1.8l1.01.509c.16.08.326.146.488.221s.352.165.53.245q.063-1.485.1-2.972-.369-.18-.738-.364a15.725,15.725,0,0,1-2.683-1.864l-.389-.341c-.012.033-.021.068-.033.1Z" fill="#cac1ca"/><path d="M303.246,264.477c.049.093.1.185.146.279.371.7.766,1.382,1.174,2.064.354.593.764,1.151,1.158,1.72.272.394.594.759.9,1.131.207.255.414.5.639.737q.255.273.513.543c.143-.42.283-.841.416-1.264q.275-.872.546-1.744c-.1-.126-.2-.256-.3-.38-.142-.177-.287-.354-.429-.53-.4-.575-.8-1.146-1.159-1.747-.2-.333-.418-.661-.6-1q-.344-.65-.686-1.3c-.078-.149-.154-.3-.23-.449q-1.041.973-2.088,1.942Z" fill="#cac1ca"/><path d="M299.733,253.781c.016.115.029.232.045.347.088.708.232,1.412.355,2.116a20.341,20.341,0,0,0,1.307,4.3l.05.12q1.074-1,2.141-2a22.221,22.221,0,0,1-.775-2.811c-.109-.536-.193-1.078-.287-1.616-.043-.242-.078-.484-.113-.728-.907.1-1.815.187-2.723.275Z" fill="#cac1ca"/></g></svg>