<svg xmlns="http://www.w3.org/2000/svg" width="71.725" height="76.533" viewBox="0 0 71.725 76.533"><g transform="translate(350.477 171.013) rotate(180)"><path d="M332.592,94.558a13.479,13.479,0,0,0-3.067,1.314,8.712,8.712,0,0,0-1.785,1.349,9.33,9.33,0,0,0-1.463,2.047,23.671,23.671,0,0,0-1.355,2.772c-.364.934-.694,1.882-.98,2.842-.6,2.009-1.08,4.053-1.513,6.1-.412,1.953-.779,3.914-1.03,5.894-.127.993-.254,1.988-.365,2.984s-.193,2.019-.265,3.03c-.142,1.992-.219,3.987-.344,5.98-.064,1.055-.12,2.109-.178,3.164-.057,1-.158,2-.263,3-.207,1.973-.451,3.943-.637,5.919-.1,1.04-.191,2.078-.3,3.116-.1,1-.216,1.989-.3,2.985q-.123,1.416-.246,2.833c-.084.977-.182,1.955-.243,2.934-.057.893-.077,1.785-.091,2.679-.015.938-.028,1.878.013,2.816a8.639,8.639,0,0,0,.142,1.237,8.056,8.056,0,0,0,.375,1.41,4.37,4.37,0,0,0,.685,1.229,3.589,3.589,0,0,0,.834.738,3.968,3.968,0,0,0,.574.312c.026-.178.053-.356.08-.534q.113-.734.238-1.467c-.039-.029-.079-.059-.118-.091a3.386,3.386,0,0,1-.293-.382,5.672,5.672,0,0,1-.335-.795,7.933,7.933,0,0,1-.228-1.112c-.05-.4-.076-.8-.088-1.206-.011-.978.006-1.954.024-2.932s.09-1.961.171-2.941.166-1.95.254-2.925.157-1.933.259-2.9c.218-2.045.405-4.093.612-6.138.2-1.972.459-3.939.639-5.911.09-.984.143-1.969.2-2.956.058-1.062.127-2.123.192-3.186.061-.992.095-1.987.15-2.98s.128-1.978.209-2.965c.166-2.018.422-4.033.714-6.036.285-1.969.693-3.925,1.129-5.866.178-.791.366-1.581.559-2.369.337-1.279.708-2.548,1.152-3.795.231-.651.481-1.3.775-1.919.281-.6.583-1.179.9-1.758.1-.168.207-.335.309-.5a6.709,6.709,0,0,1,.759-1,8.605,8.605,0,0,1,1.474-1.111,13.43,13.43,0,0,1,1.241-.605c.527-.212,1.053-.4,1.594-.568a.908.908,0,0,0,.5-.514.947.947,0,0,0-.527-1.235.855.855,0,0,0-.325-.065,1.411,1.411,0,0,0-.413.075Z" transform="translate(-12.166 -0.003)" fill="#cac1ca"/><path d="M335.329,94.583a.913.913,0,0,0-.612.368.947.947,0,0,0,.189,1.329,1.017,1.017,0,0,0,.717.179l.248-.01a4.861,4.861,0,0,1,.8.068,3.725,3.725,0,0,1,.431.183c.467.286.484.461.885.834a7.559,7.559,0,0,1,.955,1.2,6.033,6.033,0,0,1,.476,1.105,10.832,10.832,0,0,1,.274,2.173c0,.938-.062,1.872-.147,2.806-.092,1.013-.209,2.023-.325,3.034-.227,1.974-.573,3.928-.843,5.9-.13.948-.241,1.9-.358,2.846-.122.993-.3,1.982-.486,2.965-.189,1-.4,1.995-.613,2.99-.206.969-.4,1.94-.59,2.912s-.355,1.938-.537,2.907-.409,1.954-.6,2.935-.35,1.98-.483,2.976c-.129.969-.272,1.937-.471,2.895-.418,2.024-.849,4.046-1.273,6.07-.2.939-.362,1.886-.544,2.828-.2,1.02-.4,2.039-.623,3.054-.208.955-.421,1.91-.657,2.86-.312,1.174-.626,2.348-.966,3.515a17.215,17.215,0,0,1-1.239,3.337,8.574,8.574,0,0,1-.887,1.257,7.739,7.739,0,0,1-1.114.775,5.5,5.5,0,0,1-.572.283c-.117.65-.235,1.3-.331,1.955l-.015.106.145-.027a5.184,5.184,0,0,0,1.523-.57c.261-.146.509-.313.76-.474a6.335,6.335,0,0,0,.65-.436,5.455,5.455,0,0,0,.929-1.064,11.4,11.4,0,0,0,.826-1.384,12.84,12.84,0,0,0,.532-1.273c.333-.89.574-1.821.827-2.736.27-.975.545-1.949.791-2.93.24-.958.457-1.923.667-2.889.222-1.015.427-2.034.625-3.054.185-.958.353-1.922.552-2.878.422-2.015.851-4.028,1.268-6.043.2-.952.343-1.91.473-2.871.133-1,.29-1.991.479-2.978.192-1,.411-2,.609-3,.191-.966.35-1.94.539-2.909.378-1.946.82-3.881,1.19-5.83.191-1.009.362-2.02.5-3.036.127-.932.224-1.869.353-2.8.268-1.961.614-3.907.841-5.873q.178-1.547.333-3.1a26.36,26.36,0,0,0,.149-2.963c-.007-.553-.05-1.1-.106-1.65a7.009,7.009,0,0,0-.35-1.486,6.894,6.894,0,0,0-1.662-2.625,5.682,5.682,0,0,0-1.554-1.352A3.909,3.909,0,0,0,336.7,94.6a3.653,3.653,0,0,0-.6-.043c-.262,0-.524.019-.776.03Z" transform="translate(-14.596 -0.022)" fill="#cac1ca"/><path d="M335.66,101.1a4.5,4.5,0,0,0-.9.191,2.938,2.938,0,0,0-1.472,1.071,10.656,10.656,0,0,0-.816,1.327c-.238.45-.46.9-.67,1.368a.841.841,0,0,0-.071.408,5.283,5.283,0,0,0-.167.661,3.047,3.047,0,0,0-.069.529,4.483,4.483,0,0,0,.066,1.008,2.328,2.328,0,0,0,.339.791,1.707,1.707,0,0,0,.335.382,2.32,2.32,0,0,0,.484.308,1.88,1.88,0,0,0,.384.082,1.446,1.446,0,0,0,.538-.053,2.3,2.3,0,0,0,1-.565,3.687,3.687,0,0,0,.733-1.017c.163-.313.3-.641.454-.959a3.657,3.657,0,0,1,.33-.46,2.077,2.077,0,0,1,.172-.14c.056-.027.113-.053.171-.075s.127-.022.191-.029c.032,0,.063.007.095.012s.05.019.074.03.049.035.073.053c.056.066.107.132.156.2.07.128.137.256.205.385.078.147.169.288.259.426a2.061,2.061,0,0,0,.776.692,1.382,1.382,0,0,0,.85.158,1.488,1.488,0,0,0,1.266-1.627,6.562,6.562,0,0,0-.324-2.9,3.832,3.832,0,0,0-.382-.684,2.954,2.954,0,0,0-.9-.884,7.423,7.423,0,0,0-.782-.4,4.764,4.764,0,0,0-.917-.258,3.828,3.828,0,0,0-.771-.071c-.239,0-.478.017-.713.039Zm.576,1.852a4.854,4.854,0,0,1,.773.083,5.1,5.1,0,0,1,.684.271,2.833,2.833,0,0,1,.292.2,4.017,4.017,0,0,1,.25.318,3.743,3.743,0,0,1,.216.473,5.124,5.124,0,0,1,.109.715c-.032-.048-.066-.095-.1-.14a2.3,2.3,0,0,0-1.66-.843,2.579,2.579,0,0,0-1.521.426,3.541,3.541,0,0,0-1.226,1.488c-.148.291-.271.594-.418.887a3.541,3.541,0,0,1-.225.321c-.009-.072-.016-.144-.021-.217a4.8,4.8,0,0,1,.1-.73,3.213,3.213,0,0,1,.186-.452.788.788,0,0,0,.077-.371q.229-.484.479-.959a6.544,6.544,0,0,1,.7-1.064c.071-.063.144-.12.222-.177a2.443,2.443,0,0,1,.261-.116,5.279,5.279,0,0,1,.826-.116Zm2.506,3.106Zm-5.674,1.286h0Z" transform="translate(-16.287 -2.036)" fill="#cac1ca"/><path d="M310.46,118.551c-3.67,1.995-7.391,3.9-11.088,5.841-1.829.961-3.635,1.962-5.485,2.882-.884.44-1.756.9-2.613,1.387q-.654.378-1.306.762l-.6.357-.042.025-.039.024-.032.019-.006,0c-.2.123-.405.244-.608.366-.432.258-.864.512-1.3.764-.864.5-1.728,1-2.582,1.512A36.2,36.2,0,0,0,280,135.757a5.215,5.215,0,0,0-.6.59,2.181,2.181,0,0,0-.657,1.392,1.716,1.716,0,0,0,.1.632,2.917,2.917,0,0,0,.261.478,1.909,1.909,0,0,0,.391.391,2.74,2.74,0,0,0,.469.287,6.518,6.518,0,0,0,1.834.616,12.667,12.667,0,0,0,1.425.2q.786.077,1.574.123c.99.058,1.979.106,2.969.189,1.038.088,2.076.172,3.113.264,1.935.17,3.871.318,5.8.491,2,.18,4,.383,5.991.631.986.122,1.969.267,2.958.355.458.04.915.079,1.373.121.214.02.429.042.644.064a7.481,7.481,0,0,0,.965.03.905.905,0,0,0,.615-.368.949.949,0,0,0-.191-1.329l-.214-.12a.954.954,0,0,0-.473-.061c-.392-.009-.784-.068-1.173-.1-.455-.042-.91-.079-1.364-.12-.986-.088-1.964-.233-2.944-.355-2-.249-4.006-.453-6.014-.632-1.941-.173-3.884-.323-5.826-.494q-1.533-.133-3.065-.26c-1.014-.085-2.029-.133-3.044-.193a18.985,18.985,0,0,1-3.142-.372,5.405,5.405,0,0,1-.967-.366c-.039-.025-.077-.051-.115-.078.07-.095.144-.186.221-.276a16.926,16.926,0,0,1,2.414-1.859c.912-.611,1.842-1.189,2.781-1.758.635-.379,1.278-.743,1.919-1.114.743-.429,1.48-.87,2.215-1.312h0l0,0,0,0a.952.952,0,0,0,.163-.1q1.222-.73,2.464-1.427c.87-.487,1.778-.912,2.67-1.36.861-.431,1.709-.89,2.555-1.348q1.407-.762,2.826-1.5c3.433-1.8,6.881-3.568,10.286-5.418a1,1,0,0,0,.5-.514.948.948,0,0,0-.526-1.235,1.029,1.029,0,0,0-.377-.071.775.775,0,0,0-.362.082ZM290.465,131.32l-.034.021h0l.033-.02Zm-9.944,6.213.079.132a.941.941,0,0,1-.079-.132Zm.119.33v.093a.8.8,0,0,1,0-.091l0,0Zm.968.3.1.024-.1-.024Z" transform="translate(0 -7.41)" fill="#cac1ca"/><path d="M343.34,121.452a.957.957,0,0,0-.353.635.9.9,0,0,0,.2.7c.844.834,1.707,1.644,2.609,2.414.762.647,1.552,1.26,2.3,1.922.773.684,1.52,1.391,2.281,2.088q1.181,1.079,2.381,2.141c.745.659,1.472,1.335,2.191,2.021,1.242,1.234,2.448,2.5,3.7,3.726l.144.141c.057.061.121.118.184.178l.319.312a.957.957,0,0,0,.149.145l.1.1c.651.629,1.308,1.252,1.961,1.879.995.975,1.951,1.985,2.9,3,.462.493.915.993,1.374,1.49.232.251.466.5.7.756.193.213.384.425.554.653a5.364,5.364,0,0,1-.958.1,27.694,27.694,0,0,1-2.79-.2c-.966-.111-1.936-.2-2.9-.308-.993-.105-1.98-.261-2.967-.422-.959-.156-1.919-.3-2.875-.471-1.948-.35-3.9-.718-5.864-.931-.961-.1-1.926-.182-2.888-.271-.471-.045-.94-.089-1.412-.1-.552-.015-1.1.042-1.653.082-.187.013-.375.022-.563.028a10.291,10.291,0,0,1-1.57-.106.95.95,0,0,0-1.463,1.212,2.392,2.392,0,0,0,.366.373,1.741,1.741,0,0,0,.816.291c.171.03.347.05.52.066.362.034.725.05,1.089.05.737,0,1.47-.083,2.207-.113.95.028,1.9.14,2.844.226.973.088,1.942.191,2.909.33,1.924.274,3.829.655,5.745.966.976.158,1.951.321,2.93.47s1.944.237,2.918.335c.943.093,1.885.226,2.83.3.509.043,1.018.069,1.53.074a6.407,6.407,0,0,0,1.608-.135,1.988,1.988,0,0,0,1.541-1.259,1.454,1.454,0,0,0,.066-.63,3.107,3.107,0,0,0-.139-.516,2.543,2.543,0,0,0-.293-.505,1.69,1.69,0,0,0-.128-.175c-.283-.355-.594-.685-.9-1.017-.663-.719-1.322-1.44-1.99-2.152-.683-.729-1.365-1.457-2.074-2.161-.771-.764-1.561-1.51-2.346-2.261-.133-.127-.265-.255-.4-.384h0l-.558-.543h0a.95.95,0,0,0-.16-.157c-1.427-1.407-2.8-2.87-4.245-4.252-1.487-1.419-3.058-2.745-4.561-4.147-1.047-.975-2.1-1.939-3.208-2.846-.52-.427-1.05-.848-1.554-1.3-.529-.472-1.048-.955-1.563-1.443l-.253-.249a1.029,1.029,0,0,0-.636-.353c-.035,0-.07-.006-.106-.006a.964.964,0,0,0-.593.205Zm16.694,14.368.013.012h0l-.012-.012Zm-19.365,7.422.038.021-.038-.021Zm26.67,2.331-.034.035.034-.035Zm-.122.061c0,.02-.008.04-.014.059h0l.015-.06Zm-.014.429.012.041-.012-.041Z" transform="translate(-18.581 -8.268)" fill="#cac1ca"/><path d="M286.078,148.982c-.109.993-.225,1.987-.312,2.981a7.307,7.307,0,0,0-.033.748,1.924,1.924,0,0,0,.122.8,1.868,1.868,0,0,0,.609.726,3.521,3.521,0,0,0,.788.409c.167.068.338.12.508.172.27.084.544.159.818.221.225.051.449.1.675.143.1.019.2.033.3.051a4.459,4.459,0,0,0,.891.042,1.883,1.883,0,0,0,.682-.183,2.313,2.313,0,0,0,.786-.621,4.9,4.9,0,0,0,.744-1.321,9.45,9.45,0,0,0,.4-1.3,13.067,13.067,0,0,0,.326-1.574.95.95,0,0,0-1.888-.217c-.055.409-.141.809-.236,1.21a8.643,8.643,0,0,1-.619,1.723,3.1,3.1,0,0,1-.2.279c-.034.031-.069.061-.106.09l-.042.018c-.032,0-.065.009-.1.012a7.918,7.918,0,0,1-1.324-.223,7.055,7.055,0,0,1-1.244-.44c.008-.5.07-1,.123-1.5q.11-1.015.22-2.029a.958.958,0,0,0-.836-1.051.924.924,0,0,0-.106-.006.959.959,0,0,0-.946.84Zm1.546,3.782.039.039-.039-.035v0Zm.064.009.04.023-.04-.023Z" transform="translate(-2.155 -16.572)" fill="#cac1ca"/><path d="M304.273,150.419c-.129,1.128-.266,2.256-.384,3.386-.011.105-.018.212-.027.318a1.873,1.873,0,0,0,.1.9,1.605,1.605,0,0,0,.532.653,2.38,2.38,0,0,0,.8.355q.846.22,1.7.395a6.513,6.513,0,0,0,1.416.149c.162,0,.321-.006.482-.016.058,0,.115-.014.173-.019a2.15,2.15,0,0,0,.551-.143,2.575,2.575,0,0,0,.449-.251,2.209,2.209,0,0,0,.357-.362,2.325,2.325,0,0,0,.285-.46,5.36,5.36,0,0,0,.247-.546,13.54,13.54,0,0,0,.706-3.066c.012-.088.024-.176.037-.263a.951.951,0,0,0-1.889-.216c-.092.687-.2,1.37-.356,2.048A8.084,8.084,0,0,1,309,154.5c-.032.048-.065.093-.1.138a3.393,3.393,0,0,1-.42.053,11.2,11.2,0,0,1-2.322-.379c-.133-.035-.265-.071-.4-.116.014-.182.037-.364.056-.545.031-.292.066-.584.1-.876q.121-1.067.246-2.136a.957.957,0,0,0-.836-1.05.928.928,0,0,0-.106-.006.96.96,0,0,0-.947.84Zm1.338,3.708.006.01h0l-.006-.01Z" transform="translate(-7.75 -17.016)" fill="#cac1ca"/><path d="M344.194,154.494c-.085.944-.181,1.886-.256,2.83a9.839,9.839,0,0,0-.026,1.427,1.515,1.515,0,0,0,.266.722,1.966,1.966,0,0,0,.751.639,4.787,4.787,0,0,0,1.387.433,6.784,6.784,0,0,0,1.244.136,2.561,2.561,0,0,0,.371-.015,2.428,2.428,0,0,0,.474-.127,1.73,1.73,0,0,0,.451-.249,2.581,2.581,0,0,0,.4-.367,3.981,3.981,0,0,0,.742-1.541,21.066,21.066,0,0,0,.576-2.764.95.95,0,0,0-1.888-.217c-.093.63-.212,1.255-.348,1.876l0-.009a6.581,6.581,0,0,1-.423,1.281c-.039.059-.081.114-.126.169l-.043.035-.079.035-.042.005a7.377,7.377,0,0,1-1.353-.184,3.587,3.587,0,0,1-.478-.18c0-.037-.006-.073-.008-.11.012-.512.06-1.022.108-1.531q.1-1.039.19-2.076a.961.961,0,0,0-.835-1.051.862.862,0,0,0-.1-.006.957.957,0,0,0-.95.84Zm1.472,3.8.032.053c-.011-.017-.022-.035-.032-.053Zm2.234.317-.028.03.028-.03Z" transform="translate(-20.115 -18.274)" fill="#cac1ca"/><path d="M362.408,156.729c-.118,1.026-.244,2.054-.352,3.084-.026.249-.052.5-.069.751-.011.153,0,.31,0,.463a1.38,1.38,0,0,0,.143.481,1.45,1.45,0,0,0,.772.7,8.968,8.968,0,0,0,1.792.482,6.188,6.188,0,0,0,1.517.176c1.238-.065,1.7-1.416,1.966-2.423a15.269,15.269,0,0,0,.491-2.709.951.951,0,0,0-1.889-.216,15.389,15.389,0,0,1-.353,2.163,7.178,7.178,0,0,1-.429,1.252l-.027.039a12.912,12.912,0,0,1-1.653-.292c-.146-.039-.29-.081-.433-.129.033-.474.1-.948.156-1.418q.125-1.1.252-2.188a.958.958,0,0,0-.836-1.051.931.931,0,0,0-.106-.006.961.961,0,0,0-.947.841Zm3.516,4.3a.664.664,0,0,1-.072.021l.072-.021Zm-.056.049-.033.02.033-.02Z" transform="translate(-25.7 -18.964)" fill="#cac1ca"/><path d="M312.357,175.624q-1.568.96-3.136,1.915c-.845.515-1.695,1.024-2.514,1.581-.848.577-1.664,1.2-2.484,1.817a26.139,26.139,0,0,0-2.275,1.9,14.009,14.009,0,0,0-2.295,2.535,2.958,2.958,0,0,0-.477,2.053,2.5,2.5,0,0,0,1.184,1.689,5.356,5.356,0,0,0,3.766.368,22.974,22.974,0,0,0,3.209-.9q1.359-.469,2.714-.95c.6-.212,1.193-.415,1.79-.626.56-.2,1.114-.417,1.67-.626a.952.952,0,0,0,.487-1.25.967.967,0,0,0-1.253-.487c-.6.224-1.193.457-1.8.67-.646.228-1.293.448-1.939.678-1.317.472-2.638.941-3.976,1.348a13.168,13.168,0,0,1-2.439.417,4.714,4.714,0,0,1-.843-.087,3.116,3.116,0,0,1-.357-.141c-.059-.04-.117-.082-.174-.126-.033-.038-.064-.076-.095-.116s-.044-.1-.064-.145-.016-.087-.021-.131c.006-.068.014-.135.025-.2a3.167,3.167,0,0,1,.121-.306,8.766,8.766,0,0,1,1.026-1.284q.517-.514,1.046-1.013c.339-.319.686-.64,1.053-.929.829-.652,1.673-1.283,2.521-1.911,1.581-1.172,3.283-2.154,4.959-3.18q.873-.533,1.747-1.069a.9.9,0,0,0,.353-.635.95.95,0,0,0-.836-1.051.884.884,0,0,0-.1-.006,1.108,1.108,0,0,0-.6.206Z" transform="translate(-6.297 -24.995)" fill="#cac1ca"/><path d="M332.484,179.049a.952.952,0,0,0-.153,1.333c.946,1.043,1.849,2.123,2.789,3.173a24.991,24.991,0,0,1,2.347,3.108,14.264,14.264,0,0,1,1.32,2.954,6.409,6.409,0,0,1,.229,1.236c0,.057-.007.114-.014.172-.011.03-.023.059-.035.088-.039.019-.079.037-.121.053a4.256,4.256,0,0,1-.628.075,5.155,5.155,0,0,1-.933-.113,8.064,8.064,0,0,1-1.461-.659c-.4-.228-.8-.46-1.192-.7-.42-.262-.827-.552-1.228-.843s-.809-.628-1.213-.944c-.384-.3-.776-.582-1.169-.867a.947.947,0,0,0-1.667.89,1.494,1.494,0,0,0,.259.393,2.033,2.033,0,0,0,.324.277c.093.065.186.131.278.2.189.138.377.279.563.42.364.277.72.568,1.08.85a25.164,25.164,0,0,0,4.153,2.547,5.3,5.3,0,0,0,2.052.44,3.328,3.328,0,0,0,2.019-.477c1.3-.939.786-2.786.365-4.054a12.99,12.99,0,0,0-.49-1.245,12.456,12.456,0,0,0-.625-1.244c-.27-.451-.548-.894-.845-1.327-.272-.4-.562-.782-.851-1.166-.556-.737-1.189-1.412-1.8-2.1-.675-.769-1.333-1.55-2.02-2.307a1,1,0,0,0-.636-.353.914.914,0,0,0-.106-.006.965.965,0,0,0-.593.205Zm6.6,11.968c-.013.014-.027.029-.042.042l.042-.042Zm-.053.01c-.006.01-.011.02-.017.03l.017-.03Z" transform="translate(-15.599 -26.053)" fill="#cac1ca"/><path d="M324.44,175.75c-.22.154-.435.312-.641.481a7,7,0,0,0-.712.712,5.6,5.6,0,0,0-1.042,1.73,14.063,14.063,0,0,0-.513,1.588,30.383,30.383,0,0,0-.594,2.985c-.133.916-.229,1.837-.326,2.757-.1.957-.2,1.913-.312,2.871s-.2,1.9-.254,2.855c-.03.526-.045,1.05-.03,1.577.008.25.021.5.053.744a3.648,3.648,0,0,0,.207.762,2.729,2.729,0,0,0,.158.335,2.538,2.538,0,0,0,.218.334c.091.091.182.178.274.267l.111.065a.823.823,0,0,0,.333.156,1.382,1.382,0,0,0,.628.061,2.835,2.835,0,0,0,.508-.16,1.821,1.821,0,0,0,.357-.231,3.3,3.3,0,0,0,.86-1.116,11.246,11.246,0,0,0,.555-1.288,13.755,13.755,0,0,0,.475-1.5c.119-.473.226-.949.327-1.426.215-1.019.391-2.049.589-3.071.185-.945.346-1.9.57-2.831.178-.694.364-1.387.509-2.09.134-.639.245-1.284.347-1.93a5.9,5.9,0,0,0-.01-2.215,5.384,5.384,0,0,0-.982-2.019.859.859,0,0,0-.345-.274.958.958,0,0,0-.618-.33.831.831,0,0,0-.108-.007,1.011,1.011,0,0,0-.591.206Zm.469,2.036a4.288,4.288,0,0,1,.285.635,4.827,4.827,0,0,1,.116.744,13.034,13.034,0,0,1-.259,1.92c-.12.67-.254,1.335-.414,2-.186.713-.373,1.424-.516,2.148-.129.661-.25,1.326-.38,1.988-.273,1.373-.5,2.754-.832,4.116a14.1,14.1,0,0,1-.9,2.382c-.017.028-.034.055-.051.081a5.7,5.7,0,0,1-.057-.668,50.585,50.585,0,0,1,.462-5.594c.208-1.907.377-3.816.743-5.7.079-.4.177-.8.277-1.2a10.138,10.138,0,0,1,.714-1.866,5.643,5.643,0,0,1,.633-.816c.059-.056.119-.111.18-.164Zm-2.8,16.472.066.037a.523.523,0,0,1-.065-.034v0Z" transform="translate(-12.74 -25.034)" fill="#cac1ca"/></g></svg>