<svg xmlns="http://www.w3.org/2000/svg" width="17.084" height="15.643" viewBox="0 0 17.084 15.643"><g transform="translate(0 0)"><path d="M.617,25.949H16.467a.617.617,0,0,0,.618-.617V22.038a.618.618,0,0,0-.618-.617H.617A.617.617,0,0,0,0,22.038v3.293A.617.617,0,0,0,.617,25.949Zm10.608-2.779h4.349a.515.515,0,1,1,0,1.029H11.225a.515.515,0,0,1,0-1.029Z" transform="translate(0 -21.421)" fill="#fff"/><path d="M.617,191.189H16.467a.617.617,0,0,0,.618-.617v-3.293a.618.618,0,0,0-.618-.618H.617a.617.617,0,0,0-.617.618v3.293A.617.617,0,0,0,.617,191.189Zm6.08-2.779h8.878a.515.515,0,1,1,0,1.029H6.7a.515.515,0,0,1,0-1.029Z" transform="translate(0 -181.104)" fill="#fff"/><path d="M.617,356.43H16.467a.617.617,0,0,0,.618-.618v-3.293a.617.617,0,0,0-.618-.617H.617a.617.617,0,0,0-.617.617v3.293A.617.617,0,0,0,.617,356.43Zm8.755-2.779h6.2a.515.515,0,0,1,0,1.029h-6.2a.515.515,0,0,1,0-1.029Z" transform="translate(0 -340.787)" fill="#fff"/></g></svg>